<?xml version="1.0" encoding="iso-8859-1"?>
<!-- Generator: Adobe Illustrator 16.0.4, SVG Export Plug-In . SVG Version: 6.00 Build 0)  -->
<!DOCTYPE svg PUBLIC "-//W3C//DTD SVG 1.1//EN" "http://www.w3.org/Graphics/SVG/1.1/DTD/svg11.dtd">
<svg version="1.1" xmlns="http://www.w3.org/2000/svg" xmlns:xlink="http://www.w3.org/1999/xlink" x="0px" y="0px"
	 width="146.695px" height="24.45px" viewBox="0 0 146.695 24.45" style="enable-background:new 0 0 146.695 24.45;"
	 xml:space="preserve">
<g id="Layer_1">
</g>
<g id="Map">
	<path style="fill:#4885AE;" d="M5.908,8.167h4.088V5.866c0-0.59-0.012-1.095-0.034-1.516c0.852,0.284,1.45,0.491,1.797,0.622
		s0.521,0.25,0.521,0.357c0,0.108-0.233,0.253-0.699,0.435v2.402h4.327l0.442-0.836c0.068-0.125,0.142-0.187,0.221-0.187
		c0.114,0,0.461,0.167,1.04,0.502c0.578,0.335,0.868,0.565,0.868,0.69c0,0.124-0.283,0.317-0.852,0.579v4.53
		c0,0.17,0.006,0.331,0.018,0.477l0.034,0.357c0,0.08-0.058,0.154-0.171,0.223c-0.114,0.068-0.329,0.145-0.647,0.23
		c-0.317,0.084-0.551,0.125-0.698,0.125c-0.068,0-0.103-0.055-0.103-0.17v-0.902H11.58v3.834c0,0.373,0.012,0.773,0.034,1.191
		l0.017,0.58c0,0.09-0.039,0.164-0.119,0.221c-0.079,0.055-0.326,0.152-0.741,0.281c-0.414,0.129-0.655,0.195-0.724,0.195
		s-0.103-0.092-0.103-0.273l0.034-0.664c0.012-0.451,0.018-0.965,0.018-1.531v-3.834h-4.43v0.732c0,0.082-0.045,0.156-0.136,0.223
		c-0.091,0.068-0.326,0.166-0.707,0.289c-0.38,0.125-0.613,0.188-0.698,0.188s-0.122-0.057-0.111-0.17
		C3.971,14.662,4,14.236,4,13.771V8.626c0-0.477-0.018-0.959-0.052-1.447C4.766,7.497,5.419,7.825,5.908,8.167z M9.996,8.66h-4.43
		v4.634h4.43V8.66z M16.059,13.294V8.66H11.58v4.634H16.059z"/>
	<path style="fill:#4885AE;" d="M23.452,5.475h9.556l0.546-0.715c0.079-0.103,0.156-0.154,0.229-0.154
		c0.074,0,0.353,0.186,0.835,0.554c0.482,0.37,0.724,0.611,0.724,0.725c0,0.114-0.244,0.278-0.732,0.494v11.157
		c0,0.5,0.006,0.852,0.017,1.057l0.018,0.561c0,0.092-0.049,0.166-0.145,0.223c-0.097,0.057-0.31,0.143-0.639,0.256
		c-0.33,0.111-0.537,0.172-0.622,0.172s-0.128-0.074-0.128-0.223v-0.854H23.026v0.613c0,0.137-0.062,0.256-0.188,0.359
		s-0.332,0.217-0.621,0.348c-0.29,0.133-0.486,0.197-0.588,0.197c-0.057,0-0.079-0.074-0.068-0.223
		c0.046-0.512,0.068-1.055,0.068-1.635V6.003c0-0.477-0.018-0.96-0.052-1.448C22.203,4.748,22.828,5.055,23.452,5.475z
		 M33.11,18.216V5.969H23.026v12.248H33.11z M30.368,14.316c0.182,0.361,0.392,0.701,0.63,1.014
		c0.238,0.311,0.415,0.469,0.528,0.469c0.159,0,0.397-0.711,0.716-2.131l0.289,0.086c-0.079,0.738-0.119,1.404-0.119,2
		c0,0.598,0.079,1.162,0.238,1.697c0.034,0.102,0.052,0.186,0.052,0.254c0,0.16-0.086,0.24-0.256,0.24
		c-0.284,0-0.727-0.18-1.329-0.539c-0.602-0.355-1.152-0.979-1.652-1.863c-0.863,0.955-1.986,1.742-3.372,2.367l-0.153-0.223
		c1.316-0.93,2.339-1.971,3.066-3.115c-0.466-1.17-0.795-3.095-0.988-5.775h-3.884c-0.284,0-0.527,0.027-0.732,0.085l-0.29-0.63
		c0.238,0.056,0.522,0.085,0.853,0.085h4.02c-0.045-0.978-0.113-1.727-0.204-2.249c0.329,0.068,0.673,0.168,1.03,0.298
		c0.357,0.131,0.567,0.216,0.631,0.256c0.062,0.04,0.093,0.085,0.093,0.136c0,0.052-0.091,0.135-0.272,0.248v1.312h1.856l0.46-0.58
		c0.08-0.102,0.154-0.153,0.223-0.153c0.136,0,0.348,0.156,0.638,0.469s0.435,0.52,0.435,0.622c0,0.068-0.119,0.103-0.357,0.103
		h-3.236c0.067,1.624,0.255,2.992,0.562,4.105c0.363-0.897,0.704-1.999,1.022-3.306c1.033,0.568,1.55,0.927,1.55,1.073
		c0,0.068-0.065,0.114-0.196,0.137c-0.13,0.022-0.229,0.074-0.297,0.152c-0.068,0.081-0.137,0.217-0.205,0.41
		C31.282,12.584,30.833,13.566,30.368,14.316z M28.068,15.066l-2.742,1.021c-0.579,0.205-0.943,0.361-1.09,0.469
		c-0.147,0.107-0.241,0.16-0.281,0.16s-0.094-0.053-0.161-0.16c-0.068-0.107-0.245-0.469-0.529-1.084
		c0.761-0.066,1.426-0.15,1.994-0.254L28,14.742L28.068,15.066z M25.224,10.21h0.987l0.307-0.408
		c0.057-0.08,0.122-0.119,0.196-0.119c0.073,0,0.261,0.104,0.562,0.314c0.301,0.211,0.451,0.36,0.451,0.451
		c0,0.092-0.119,0.188-0.357,0.29v2.215c0,0.17,0.006,0.323,0.018,0.46l0.034,0.358c0,0.135-0.146,0.264-0.435,0.383
		c-0.29,0.119-0.475,0.178-0.554,0.178c-0.08,0-0.119-0.055-0.119-0.17v-0.766h-1.295v0.629c0,0.148-0.168,0.279-0.502,0.393
		c-0.336,0.113-0.526,0.17-0.571,0.17c-0.046,0-0.062-0.057-0.051-0.17c0.057-0.396,0.085-0.818,0.085-1.26v-2.13
		c0-0.477-0.017-0.959-0.051-1.447C24.361,9.717,24.792,9.926,25.224,10.21z M26.314,12.987v-2.368h-1.295v2.368H26.314z
		 M29.669,6.156c0.533,0.147,0.928,0.307,1.184,0.478c0.256,0.17,0.383,0.368,0.383,0.596s-0.067,0.426-0.204,0.596
		c-0.136,0.171-0.27,0.256-0.4,0.256c-0.13,0-0.219-0.079-0.264-0.239c-0.193-0.623-0.454-1.129-0.784-1.516L29.669,6.156z"/>
	<path style="fill:#4885AE;" d="M45.629,14.06h4.311l0.681-0.971c0.148-0.204,0.284-0.307,0.408-0.307
		c0.125,0,0.296,0.091,0.512,0.273l0.783,0.68c0.307,0.273,0.46,0.477,0.46,0.613s-0.158,0.205-0.477,0.205h-5.859
		c1.578,1.998,3.815,3.111,6.711,3.338v0.307c-0.908,0.035-1.573,0.357-1.993,0.971c-0.068,0.104-0.142,0.154-0.222,0.154
		c-0.17,0-0.743-0.314-1.72-0.945s-1.704-1.232-2.181-1.807s-0.857-1.246-1.142-2.018h-0.272v2.98l0.034,1.822
		c0,0.16-0.034,0.271-0.102,0.334c-0.068,0.061-0.272,0.148-0.613,0.262c-0.342,0.115-0.562,0.17-0.665,0.17
		c-0.102,0-0.164-0.018-0.187-0.059c-0.023-0.041-0.034-0.127-0.034-0.262l0.034-0.785c0.011-0.535,0.017-0.988,0.017-1.363v-2.418
		c-0.728,0.932-1.711,1.797-2.955,2.598s-2.587,1.428-4.028,1.881l-0.17-0.322c2.634-1.24,4.564-2.852,5.79-4.838h-4.121
		c-0.296,0-0.54,0.027-0.733,0.086l-0.323-0.666c0.238,0.059,0.522,0.086,0.853,0.086h5.688c0-0.488-0.017-0.949-0.051-1.38
		l0.869,0.153c-0.034-0.022-0.108-0.164-0.222-0.426c-0.205-0.511-0.654-1.106-1.346-1.788l0.188-0.222
		c0.703,0.238,1.227,0.44,1.566,0.604c0.341,0.165,0.565,0.31,0.674,0.436c0.106,0.124,0.161,0.275,0.161,0.45
		c0,0.177-0.076,0.373-0.229,0.588c-0.153,0.216-0.327,0.353-0.52,0.409c0.636,0.125,0.953,0.227,0.953,0.307
		c0,0.057-0.176,0.188-0.528,0.392V14.06z M47.929,6.582h1.942l0.681-0.92c0.103-0.136,0.207-0.204,0.315-0.204
		s0.326,0.143,0.656,0.426l0.749,0.665c0.17,0.146,0.255,0.28,0.255,0.399s-0.141,0.179-0.425,0.179h-4.174l0.034,0.869
		c0,0.103-0.012,0.185-0.034,0.247s-0.202,0.152-0.536,0.271c-0.335,0.119-0.543,0.18-0.622,0.18c-0.08,0-0.119-0.091-0.119-0.272
		V7.127H43.28v1.192c0,0.137-0.016,0.232-0.043,0.29c-0.028,0.057-0.156,0.145-0.384,0.264c-0.227,0.12-0.429,0.179-0.604,0.179
		s-0.278-0.017-0.307-0.051S41.9,8.916,41.9,8.848s0.008-0.241,0.024-0.52c0.018-0.278,0.026-0.678,0.026-1.201h-3.799
		c-0.295,0-0.533,0.034-0.715,0.103l-0.409-0.732c0.238,0.057,0.521,0.085,0.852,0.085h4.071v-1.09c0-0.375-0.017-0.789-0.051-1.244
		c0.397,0.058,0.78,0.134,1.149,0.23s0.594,0.161,0.673,0.195s0.119,0.074,0.119,0.12c0,0.079-0.188,0.227-0.562,0.442v1.346h3.372
		v-1.09c0-0.375-0.017-0.789-0.051-1.244c1.328,0.272,1.993,0.483,1.993,0.631c0,0.091-0.222,0.267-0.665,0.528V6.582z
		 M49.428,8.388c0.329,0.375,0.591,0.707,0.784,0.996c0.192,0.29,0.289,0.466,0.289,0.528c0,0.063-0.034,0.094-0.103,0.094
		c-0.067,0-0.156-0.022-0.264-0.068c-0.107-0.045-0.284-0.067-0.528-0.067s-0.752,0.034-1.523,0.102
		c-2.669,0.228-5.146,0.341-7.428,0.341c-0.886,0-1.658-0.017-2.315-0.051l-0.018-0.375C43.126,9.568,46.828,9.068,49.428,8.388z
		 M39.873,10.602c0.874,0.353,1.479,0.616,1.813,0.792c0.336,0.177,0.548,0.33,0.64,0.46c0.091,0.131,0.136,0.326,0.136,0.588
		s-0.103,0.526-0.307,0.792c-0.204,0.268-0.371,0.401-0.502,0.401s-0.228-0.041-0.29-0.119c-0.062-0.08-0.139-0.261-0.23-0.545
		c-0.09-0.284-0.283-0.645-0.578-1.082c-0.296-0.437-0.585-0.797-0.869-1.081L39.873,10.602z M48.645,10.074
		c0.341,0.125,0.673,0.272,0.996,0.442s0.53,0.284,0.622,0.341c0.091,0.057,0.136,0.111,0.136,0.162s-0.077,0.085-0.229,0.103
		c-0.153,0.017-0.383,0.179-0.69,0.485c-0.613,0.612-1.396,1.329-2.351,2.146l-0.323-0.221
		C47.339,12.794,47.952,11.642,48.645,10.074z"/>
	<path style="fill:#4885AE;" d="M60.483,15.9c0.159,0.09,0.228,0.17,0.204,0.238c-0.021,0.066-0.119,0.107-0.289,0.119
		c-0.058,0-0.127,0.025-0.212,0.076c-0.087,0.053-0.259,0.174-0.521,0.367c-0.307,0.227-0.652,0.465-1.039,0.715
		c-0.386,0.25-0.798,0.502-1.234,0.758c-0.438,0.256-0.892,0.508-1.363,0.76c-0.472,0.248-0.939,0.488-1.404,0.713l-0.205-0.289
		c1.079-0.783,1.998-1.523,2.759-2.223s1.386-1.371,1.874-2.018c0.238,0.123,0.472,0.246,0.699,0.365
		C59.978,15.603,60.221,15.742,60.483,15.9z M63.26,19.646c0,0.104-0.041,0.178-0.119,0.223c-0.228,0.125-0.438,0.217-0.631,0.281
		c-0.193,0.062-0.414,0.115-0.664,0.162c-0.079,0.021-0.134,0.018-0.162-0.01s-0.036-0.105-0.025-0.229
		c0.011-0.238,0.022-0.443,0.034-0.613c0.011-0.172,0.02-0.336,0.024-0.494c0.006-0.16,0.01-0.322,0.01-0.486s0-0.361,0-0.588
		v-3.373c-0.647,0.068-1.247,0.131-1.798,0.189c-0.551,0.055-1.033,0.105-1.447,0.15c-0.414,0.049-0.753,0.09-1.014,0.129
		c-0.261,0.041-0.432,0.07-0.511,0.094c-0.16,0.059-0.267,0.074-0.324,0.051c-0.057-0.021-0.097-0.084-0.119-0.188
		c-0.067-0.227-0.125-0.447-0.17-0.664c-0.046-0.215-0.08-0.453-0.102-0.715c0.249,0.033,0.484,0.062,0.706,0.086
		c0.222,0.021,0.446,0.039,0.673,0.051c0.499-0.25,0.999-0.52,1.499-0.81c0.499-0.289,0.977-0.576,1.431-0.859
		c0.454-0.284,0.877-0.56,1.27-0.826c0.392-0.268,0.734-0.508,1.03-0.725c-0.353,0.046-0.687,0.083-1.005,0.111
		s-0.667,0.062-1.048,0.103c-0.381,0.039-0.818,0.096-1.312,0.17c-0.494,0.073-1.088,0.179-1.78,0.314
		c-0.125,0.023-0.21,0.029-0.256,0.018c-0.045-0.012-0.09-0.073-0.136-0.188c-0.125-0.363-0.238-0.777-0.341-1.243
		c0.17,0.022,0.369,0.036,0.596,0.042c0.228,0.007,0.455,0.009,0.683,0.009c0.816-0.602,1.513-1.164,2.086-1.686
		c0.573-0.522,0.984-0.943,1.235-1.261c-0.603,0.067-1.216,0.125-1.84,0.17c-0.625,0.045-1.216,0.082-1.771,0.11
		c-0.557,0.029-1.06,0.049-1.508,0.06c-0.449,0.012-0.797,0.018-1.048,0.018l-0.033-0.323c1.215-0.125,2.398-0.275,3.552-0.452
		c1.152-0.176,2.236-0.36,3.253-0.554s1.941-0.392,2.776-0.596s1.548-0.397,2.138-0.579c0.227,0.272,0.427,0.519,0.597,0.74
		c0.17,0.223,0.329,0.435,0.477,0.639c0.159,0.228,0.218,0.376,0.179,0.444c-0.04,0.067-0.173,0.073-0.4,0.017
		c-0.182-0.046-0.42-0.074-0.716-0.085c-0.295-0.012-0.715,0.005-1.26,0.051c-0.148,0.011-0.35,0.031-0.604,0.06
		c-0.256,0.028-0.546,0.057-0.869,0.085c-0.323,0.029-0.681,0.057-1.073,0.085c-0.392,0.029-0.798,0.054-1.218,0.077
		C62.43,6.963,62.63,7.065,62.8,7.145s0.317,0.164,0.442,0.255c0.147,0.114,0.21,0.201,0.188,0.265
		c-0.023,0.062-0.113,0.105-0.272,0.127c-0.114,0.012-0.233,0.04-0.357,0.085c-0.125,0.046-0.347,0.165-0.665,0.358
		c-0.159,0.103-0.349,0.216-0.57,0.341s-0.454,0.259-0.698,0.4c-0.245,0.142-0.492,0.283-0.741,0.426
		c-0.25,0.143-0.493,0.281-0.732,0.417l4.31,0.052c0.147-0.103,0.304-0.225,0.469-0.367c0.164-0.142,0.329-0.286,0.493-0.435
		c0.165-0.146,0.326-0.292,0.485-0.435c0.159-0.141,0.307-0.269,0.443-0.382c0.716,0.432,1.243,0.789,1.584,1.072
		c0.25,0.204,0.216,0.329-0.103,0.375c-0.158,0.022-0.329,0.062-0.511,0.119s-0.432,0.171-0.749,0.341
		c-0.318,0.17-0.74,0.395-1.27,0.673c-0.527,0.278-1.106,0.579-1.737,0.902c-0.63,0.324-1.286,0.659-1.968,1.006
		c-0.681,0.347-1.334,0.673-1.958,0.978l7.461-0.135c-0.341-0.295-0.677-0.56-1.006-0.792c-0.329-0.233-0.71-0.475-1.141-0.725
		l0.119-0.306c0.931,0.249,1.678,0.474,2.239,0.673c0.562,0.198,0.997,0.399,1.304,0.604c0.307,0.204,0.511,0.426,0.613,0.665
		c0.102,0.238,0.153,0.521,0.153,0.852c0,0.25-0.057,0.43-0.171,0.535c-0.113,0.109-0.215,0.162-0.306,0.162
		c-0.103,0-0.219-0.02-0.35-0.061c-0.131-0.037-0.236-0.121-0.315-0.246c-0.125-0.215-0.227-0.385-0.307-0.51
		c-0.079-0.125-0.21-0.273-0.392-0.443c-0.466,0.057-0.974,0.113-1.524,0.17s-1.235,0.125-2.053,0.205v3.525
		c0,0.342,0.003,0.641,0.008,0.904C63.223,19.056,63.237,19.339,63.26,19.646z M69.05,18.064c0,0.352-0.064,0.639-0.195,0.857
		c-0.131,0.223-0.275,0.332-0.435,0.332c-0.091,0-0.196-0.037-0.315-0.117s-0.275-0.266-0.467-0.562
		c-0.364-0.545-0.821-1.135-1.372-1.77c-0.551-0.637-1.263-1.223-2.138-1.756l0.153-0.273c1.021,0.307,1.845,0.605,2.47,0.895
		s1.107,0.572,1.448,0.852c0.34,0.279,0.567,0.545,0.681,0.801C68.995,17.576,69.05,17.824,69.05,18.064z"/>
	<path style="fill:#4885AE;" d="M82.253,6.258h-5.538c-0.307,0-0.543,0.04-0.713,0.12l-0.358-0.732
		c0.238,0.057,0.521,0.085,0.85,0.085h11.651l0.853-1.039c0.102-0.159,0.207-0.239,0.315-0.239c0.107,0,0.418,0.23,0.928,0.69
		c0.511,0.461,0.766,0.753,0.766,0.877c0,0.159-0.163,0.238-0.491,0.238h-6.373c-0.373,0.33-0.936,1.318-1.686,2.964h3.696
		l0.595-0.919c0.07-0.125,0.152-0.188,0.248-0.188s0.412,0.179,0.946,0.536c0.532,0.358,0.801,0.597,0.801,0.716
		s-0.198,0.299-0.598,0.537v7.24c0,0.477,0.008,0.838,0.019,1.09l0.017,0.699c0,0.135-0.057,0.248-0.172,0.34
		c-0.112,0.088-0.303,0.176-0.569,0.256c-0.266,0.078-0.514,0.117-0.741,0.117c-0.102,0-0.153-0.066-0.153-0.203v-1.379h-6.831
		v1.293c0,0.139-0.029,0.234-0.093,0.289c-0.062,0.057-0.241,0.143-0.535,0.256c-0.296,0.113-0.523,0.172-0.683,0.172
		c-0.16,0-0.249-0.016-0.271-0.043c-0.024-0.029-0.035-0.088-0.035-0.18l0.05-0.613c0.035-0.42,0.052-0.822,0.052-1.209v-7.904
		c0-0.624-0.022-1.192-0.066-1.703c0.771,0.228,1.464,0.494,2.077,0.8h1.379C81.939,7.871,82.161,6.883,82.253,6.258z
		 M86.544,13.242V9.785h-6.831v3.457H86.544z M86.544,17.365v-3.51h-6.831v3.51H86.544z"/>
	<path style="fill:#4885AE;" d="M98.928,9.955H96.39c-0.307,0-0.545,0.039-0.715,0.119L95.42,9.308
		c0.236,0.057,0.521,0.085,0.85,0.085h6.609l0.666-0.783c0.077-0.103,0.187-0.153,0.321-0.153c0.137,0,0.427,0.212,0.868,0.639
		c0.444,0.426,0.666,0.675,0.666,0.749s-0.085,0.111-0.255,0.111h-4.004c-0.772,0.568-1.305,0.953-1.601,1.157
		c0.817,0.534,1.425,1.153,1.822,1.857c1.521-0.942,2.64-1.794,3.356-2.555c0.329,0.238,0.654,0.505,0.979,0.8
		c0.322,0.296,0.507,0.478,0.553,0.546c0.047,0.067,0.068,0.13,0.068,0.187c0,0.126-0.085,0.188-0.255,0.188
		c-0.07,0-0.159-0.014-0.273-0.042s-0.236-0.043-0.366-0.043c-0.129,0-0.443,0.108-0.937,0.323c-0.494,0.217-0.985,0.409-1.474,0.58
		c0.397,1.169,1.008,2.117,1.83,2.845c0.824,0.727,1.974,1.338,3.451,1.838l-0.068,0.342c-0.921-0.047-1.59,0.205-2.012,0.748
		c-0.055,0.08-0.118,0.119-0.187,0.119c-0.181,0-0.7-0.438-1.558-1.311c-0.857-0.875-1.497-2.344-1.917-4.412l-0.971,0.341
		c0.272,0.659,0.409,1.374,0.409,2.145c0,0.773-0.076,1.551-0.231,2.336c-0.151,0.781-0.518,1.342-1.098,1.676
		c-0.578,0.336-0.965,0.502-1.157,0.502c-0.104,0-0.178-0.107-0.222-0.32c-0.147-0.66-0.818-1.176-2.011-1.553l0.033-0.34
		c0.795,0.18,1.386,0.273,1.772,0.273c0.386,0,0.661-0.037,0.826-0.111c0.164-0.074,0.281-0.174,0.35-0.299s0.142-0.48,0.22-1.072
		c0.081-0.592,0.114-1.125,0.104-1.602c-1.228,0.988-2.425,1.781-3.593,2.385c-1.172,0.602-2.606,1.152-4.311,1.652l-0.17-0.34
		c1.76-0.75,3.195-1.523,4.31-2.318c1.113-0.795,2.271-1.85,3.476-3.167c-0.049-0.17-0.126-0.363-0.24-0.58
		c-1.102,0.886-2.151,1.601-3.149,2.148c-1.002,0.545-2.238,1.057-3.716,1.533l-0.203-0.377c1.157-0.488,2.325-1.152,3.501-1.992
		c1.176-0.84,2.096-1.669,2.767-2.486l-0.153-0.153c-1.715,1.112-3.719,1.964-6.013,2.553l-0.187-0.34
		c1.294-0.465,2.491-1.036,3.593-1.712C97.593,11.229,98.407,10.579,98.928,9.955z M99.967,7.042
		c-0.296-1.261-0.825-2.084-1.584-2.471l0.153-0.323c1.999,0.443,2.997,1,2.997,1.67c0,0.182-0.066,0.39-0.203,0.621
		c-0.137,0.233-0.303,0.4-0.495,0.503h4.412l0.545-0.545c0.147-0.147,0.255-0.222,0.323-0.222s0.213,0.088,0.435,0.264
		c0.222,0.177,0.47,0.384,0.741,0.622s0.464,0.421,0.571,0.545c0.107,0.125,0.162,0.228,0.162,0.308
		c0,0.204-0.155,0.306-0.462,0.306l-0.373-0.033c-0.307,0-0.671,0.073-1.091,0.221c-0.421,0.147-0.824,0.357-1.209,0.63l-0.24-0.238
		c0.364-0.522,0.625-0.965,0.784-1.329h-9.742c-0.024,0.807-0.201,1.426-0.538,1.857c-0.333,0.432-0.706,0.647-1.114,0.647
		c-0.307,0-0.561-0.08-0.758-0.238c-0.198-0.159-0.298-0.344-0.298-0.554s0.148-0.384,0.443-0.52
		c1.065-0.511,1.679-1.397,1.838-2.658h0.41c0.011,0.217,0.017,0.529,0.017,0.938H99.967z"/>
	<path style="fill:#4885AE;" d="M116.354,10.704h-3.509c-0.307,0-0.547,0.04-0.717,0.119l-0.307-0.749
		c0.24,0.057,0.522,0.085,0.854,0.085h6.574c0.896-1.169,1.612-2.424,2.146-3.764c0.521,0.238,0.946,0.462,1.268,0.672
		c0.325,0.21,0.486,0.35,0.486,0.417c0,0.068-0.12,0.114-0.357,0.137c-0.24,0.023-0.512,0.199-0.816,0.528
		c-0.613,0.681-1.312,1.352-2.096,2.01h0.868l0.426-0.562c0.079-0.103,0.164-0.153,0.255-0.153c0.092,0,0.34,0.128,0.75,0.384
		c0.408,0.255,0.667,0.42,0.774,0.493c0.109,0.074,0.163,0.14,0.163,0.196c0,0.113-0.238,0.284-0.716,0.511v1.567h0.459l0.75-1.021
		c0.079-0.103,0.17-0.153,0.273-0.153c0.102,0,0.381,0.246,0.834,0.741c0.454,0.493,0.682,0.777,0.682,0.851
		c0,0.075-0.126,0.111-0.375,0.111h-2.623v1.552l0.033,1.053c0,0.104-0.003,0.174-0.007,0.215c-0.008,0.041-0.1,0.121-0.281,0.248
		c-0.183,0.123-0.392,0.232-0.632,0.32c-0.236,0.092-0.394,0.137-0.468,0.137s-0.111-0.078-0.111-0.236v-0.869h-3.048v2.777
		c0,0.465-0.062,0.816-0.188,1.055c-0.125,0.238-0.417,0.477-0.876,0.715c-0.462,0.238-0.771,0.359-0.93,0.359
		c-0.102,0-0.17-0.074-0.205-0.223c-0.077-0.328-0.17-0.572-0.271-0.73c-0.102-0.16-0.29-0.305-0.562-0.428
		c-0.272-0.123-0.727-0.279-1.362-0.461l0.052-0.357c1.077,0.158,1.777,0.24,2.104,0.24c0.321,0,0.521-0.035,0.595-0.104
		c0.074-0.066,0.111-0.188,0.111-0.357v-2.486h-4.275c-0.307,0-0.545,0.039-0.716,0.119l-0.307-0.803
		c0.238,0.059,0.521,0.086,0.851,0.086h4.447v-1.822h-5.331c-0.307,0-0.547,0.039-0.717,0.119L110,12.51
		c0.24,0.057,0.522,0.085,0.854,0.085h5.501V10.704z M122.502,4.504c0.238,0.204,0.525,0.497,0.859,0.877
		c0.337,0.381,0.503,0.611,0.503,0.689c0,0.081-0.044,0.119-0.137,0.119c-0.089,0-0.224-0.021-0.399-0.067
		c-0.177-0.045-0.429-0.068-0.758-0.068s-0.914,0.058-1.756,0.17c-2.792,0.364-6.062,0.518-9.811,0.461l-0.085-0.307
		C116.017,5.799,119.88,5.174,122.502,4.504z M112.043,6.872c0.954,0.363,1.59,0.664,1.907,0.902
		c0.318,0.239,0.477,0.525,0.477,0.859c0,0.336-0.075,0.605-0.229,0.81c-0.151,0.205-0.312,0.308-0.478,0.308
		c-0.164,0-0.284-0.04-0.358-0.119c-0.073-0.08-0.158-0.281-0.255-0.605c-0.096-0.324-0.226-0.624-0.392-0.903
		c-0.163-0.277-0.445-0.621-0.843-1.03L112.043,6.872z M116.15,6.701c0.738,0.33,1.287,0.637,1.652,0.92
		c0.362,0.284,0.544,0.597,0.544,0.937c0,0.341-0.097,0.619-0.288,0.835c-0.194,0.216-0.411,0.324-0.647,0.324
		c-0.183,0-0.296-0.171-0.342-0.512c-0.159-0.897-0.523-1.669-1.089-2.316L116.15,6.701z M120.935,12.595v-1.891h-3.048v1.891
		H120.935z M120.935,14.945v-1.822h-3.048v1.822H120.935z"/>
	<path style="fill:#4885AE;" d="M128.874,6.991h1.771l0.291-0.477c0.046-0.092,0.108-0.137,0.187-0.137
		c0.079,0,0.232,0.079,0.46,0.238l0.563,0.409c0.17,0.113,0.255,0.232,0.255,0.357c0,0.182-0.147,0.301-0.443,0.357v5.451
		c0,0.488,0.006,0.83,0.017,1.021l0.017,0.547c0,0.113-0.04,0.197-0.118,0.256c-0.079,0.055-0.251,0.125-0.51,0.211
		c-0.263,0.086-0.455,0.129-0.581,0.129c-0.068,0-0.104-0.045-0.104-0.137v-0.768h-1.837v1.295c0,0.137-0.029,0.234-0.085,0.289
		c-0.059,0.059-0.251,0.152-0.58,0.281c-0.329,0.133-0.528,0.195-0.596,0.195c-0.07,0-0.098-0.045-0.085-0.135
		c0.056-0.557,0.085-1.117,0.085-1.688V7.791c0-0.453-0.019-0.925-0.052-1.413C127.913,6.515,128.364,6.719,128.874,6.991z
		 M130.677,13.941V7.519h-1.837v6.422H130.677z M132.45,15.287c0.113,0.566,0.172,1.141,0.172,1.721
		c0,0.578-0.156,1.123-0.469,1.633c-0.312,0.512-0.695,0.77-1.149,0.77c-0.206,0-0.364-0.051-0.478-0.146
		c-0.114-0.098-0.17-0.234-0.17-0.418c0-0.18,0.118-0.391,0.356-0.629c0.886-0.887,1.374-1.867,1.466-2.947L132.45,15.287z
		 M135.398,6.735c0.271-0.999,0.442-1.817,0.511-2.453c0.68,0.204,1.156,0.373,1.43,0.503c0.274,0.13,0.411,0.221,0.411,0.272
		c0,0.051-0.085,0.111-0.257,0.179c-0.171,0.068-0.335,0.19-0.494,0.367c-0.159,0.175-0.449,0.553-0.868,1.132h2.69l0.289-0.528
		c0.046-0.09,0.122-0.137,0.23-0.137c0.109,0,0.368,0.146,0.784,0.435c0.414,0.29,0.622,0.506,0.622,0.647
		c0,0.143-0.155,0.265-0.462,0.366v2.453c0,0.228,0.008,0.426,0.019,0.596l0.033,0.426c0,0.068-0.044,0.132-0.137,0.188
		c-0.09,0.058-0.271,0.131-0.543,0.223c-0.273,0.09-0.451,0.136-0.538,0.136c-0.085,0-0.128-0.057-0.128-0.17v-0.393h-4.666v1.176
		h5.875l0.562-0.817c0.07-0.091,0.146-0.137,0.23-0.137s0.318,0.173,0.699,0.52c0.379,0.347,0.57,0.582,0.57,0.707
		s-0.096,0.187-0.29,0.187h-7.647v1.398h5.757l0.238-0.41c0.08-0.125,0.165-0.186,0.255-0.186c0.091,0,0.355,0.122,0.793,0.366
		c0.437,0.244,0.654,0.434,0.654,0.57s-0.135,0.266-0.406,0.393c-0.07,1.691-0.17,2.904-0.3,3.637
		c-0.129,0.732-0.554,1.242-1.268,1.531c-0.717,0.291-1.164,0.436-1.346,0.436c-0.092,0-0.166-0.074-0.222-0.223
		c-0.137-0.385-0.348-0.688-0.632-0.902c-0.283-0.215-0.799-0.402-1.549-0.561v-0.291c1.168,0.184,1.981,0.271,2.436,0.271
		c0.455,0,0.762-0.076,0.921-0.236c0.159-0.158,0.28-0.535,0.366-1.123c0.085-0.592,0.155-1.523,0.212-2.795h-5.91
		c0,0.125-0.024,0.215-0.068,0.273c-0.045,0.055-0.174,0.129-0.385,0.221c-0.209,0.09-0.422,0.137-0.638,0.137
		c-0.091,0-0.135-0.059-0.135-0.172l0.015-0.545c0.011-0.158,0.019-0.361,0.019-0.613V7.569c0-0.465-0.019-0.941-0.052-1.431
		c0.569,0.205,1.005,0.403,1.312,0.597H135.398z M133.524,15.269c0.466,0.545,0.813,1.012,1.046,1.398
		c0.233,0.383,0.352,0.723,0.352,1.012s-0.109,0.57-0.325,0.844c-0.215,0.273-0.399,0.41-0.553,0.41s-0.25-0.037-0.29-0.111
		c-0.041-0.074-0.06-0.203-0.06-0.385l0.017-0.492c0-0.83-0.135-1.699-0.408-2.609L133.524,15.269z M138.991,8.66V7.179h-4.666V8.66
		H138.991z M138.991,10.517V9.12h-4.666v1.396H138.991z M135.073,14.962c0.784,0.51,1.312,0.91,1.586,1.193
		c0.271,0.281,0.406,0.539,0.406,0.766c0,0.229-0.075,0.469-0.229,0.725c-0.152,0.256-0.304,0.383-0.451,0.383
		c-0.08,0-0.143-0.031-0.188-0.094c-0.045-0.062-0.107-0.219-0.185-0.471c-0.308-0.939-0.677-1.719-1.109-2.332L135.073,14.962z
		 M136.81,14.708c0.683,0.283,1.18,0.518,1.492,0.705c0.312,0.189,0.516,0.359,0.611,0.51c0.098,0.156,0.146,0.359,0.146,0.613
		c0,0.256-0.057,0.479-0.17,0.666c-0.112,0.188-0.245,0.281-0.392,0.281c-0.102,0-0.222-0.154-0.356-0.461
		c-0.366-0.795-0.854-1.51-1.468-2.145L136.81,14.708z"/>
</g>
</svg>
