<?xml version="1.0" encoding="utf-8"?>
<!-- Generator: Adobe Illustrator 16.2.0, SVG Export Plug-In . SVG Version: 6.00 Build 0)  -->
<!DOCTYPE svg PUBLIC "-//W3C//DTD SVG 1.1//EN" "http://www.w3.org/Graphics/SVG/1.1/DTD/svg11.dtd">
<svg version="1.1" id="Layer_1" xmlns="http://www.w3.org/2000/svg" xmlns:xlink="http://www.w3.org/1999/xlink" x="0px" y="0px"
	 width="485.976px" height="470.976px" viewBox="0 0 485.976 470.976" enable-background="new 0 0 485.976 470.976"
	 xml:space="preserve">
<path id="XMLID_399_" fill="#E53535" d="M457.105,230.508c-4.479-13.282-13.417-25.607-22.139-36.446
	c-3.848-4.782-8.279-8.974-13.295-12.534c-0.532-0.378-1.032-0.801-1.547-1.204c0.067-0.145,0.135-0.289,0.202-0.433
	c2.225,0.86,4.58,1.485,6.641,2.638c6.862,3.837,13.108,8.734,18.604,14.353c3.329,3.405,13.734,13.146,13.631,18.214
	c0.112-5.484-0.822-10.763-1.761-16.136c-3.029-17.324-5.83-31.736-19.93-43.916c-12.563-10.854-28.075-16.313-43.036-22.881
	c8.093-1.104,16.37,0.554,23.987,3.5c4.783,1.85,9.345,4.205,13.811,6.715c1.53,0.86,8.304,6.208,10.178,5.075
	c0.132-0.08,0.264-0.159,0.395-0.239c2.107-1.275-20.229-36.613-22.771-39.056c-15.763-15.163-40.447-18.988-61.44-19.333
	c7.395-1.452,13.835-3.456,21.459-3.29c3.982,0.087,7.947,0.501,11.906,0.905c1.715,0.175,10.16-0.094,11.102,1.041
	c-23.16-27.932-62.537-45.74-98.672-44.194c-1.455,0.062-2.915,0.009-4.372,0.009c-0.033-0.163-0.066-0.326-0.101-0.489
	c7.033-1.594,14.065-3.188,21.099-4.781c0.045-0.117,0.091-0.233,0.136-0.35c-26.282-6.473-59.86-5.658-85.009,4.602
	c-0.279,0.114-0.549,0.251-0.856,0.393c-3.542-4.124-5.2-9.997-7.883-14.705c-2.991-5.249-6.382-10.265-10.036-15.073
	c-0.212-0.279-1.373-0.275-1.668,0.021c-1.568,1.57-3.204,3.138-4.435,4.964c-2.201,3.266-4.271,6.64-6.128,10.112
	c-2.915,5.449-4.135,11.056-5.124,17.113c-0.88-0.402-2.077-0.848-3.177-1.467c-6.399-3.598-13.05-6.014-20.59-5.893
	c-8.907,0.143-18.262,0.75-26.759,3.578c-1.145,0.381-1.511,1.4-0.75,2.331c3.128,3.821,6.096,7.803,9.517,11.345
	c4.002,4.145,9.189,6.732,14.342,9.138c3.553,1.66,7.41,2.669,11.135,3.959c0.521,0.18,1.063,0.298,2.107,0.587
	c-13.665,15.145-30.914,24.389-49.205,32.793c-1.722,0.791-3.448,1.19-5.465,0.536c-8.42-2.729-14.271,5.317-12.624,13.154
	c0.944,4.494,4.62,9.685,9.726,8.44c0.583-0.142,1.48-0.027,1.895,0.346c9.517,8.55,20.25,16.399,33.252,18.331
	c13.561,2.015,23.917-3.262,36.138-7.759c1.612-0.593,3.227-1.177,4.809-1.753c-1.096,2.18-4.019,4.938-6.868,6.124
	c-3.122,1.299-6.301,2.472-9.498,3.578c-5.686,1.968-11.326,4.061-16.367,7.397c-15.737,10.417-26.324,29.896-16.046,48.005
	c3.682,6.487,10.953,11.945,18.435,8.358c6.191-2.969,9.193-8.415,10.955-14.889c1.594-5.858,2.675-20.884,10.375-21.923
	c12.06-1.627,23.461-4.049,33.751-10.93c3.684-2.463,7.162-5.364,11.318-6.903c7.346-2.721,16.608-1.018,23.622,1.964
	c4.878,2.074,9.319,5.557,11.664,10.31c3.468,7.03,1.798,15.686-2.116,22.478c-4.749,8.243-12.484,14.468-20.981,18.747
	c-22.053,11.106-49.691,14.079-74.003,11.691c-8.376-0.823-16.698-2.357-25.113-2.525c-20.735-0.415-44.094,12.221-56.315,28.885
	c-4.755-8.936-8.243-16.823-10.39-26.896c-10.929-51.285,7.694-118.469,57.018-144.231c0.364-0.19,0.731-0.372,1.088-0.573
	c0.069-0.039,0.097-0.152,0.419-0.693c-3.74,0.346-7.207,0.438-10.586,1.028c-20.298,3.546-36.483,11.156-48.751,28.227
	c0.699-2.869,1.046-5.653,2.078-8.155c1.053-2.552,2.778-4.826,4.183-7.179c-0.028,0-0.259-0.069-0.416,0.01
	c-12.435,6.252-24.431,13.188-30.594,26.303c-2.443,5.198-3.833,10.815-5.209,16.391c-0.32-1.621-2.085-15.97-0.529-17.09
	c-0.661,0.476-1.038,0.736-1.404,1.012c-6.318,4.743-10.614,11.986-13.14,19.368c-1.745,5.1-5.289,17.609-3.809,22.902
	c-0.647-2.315-1.372-4.267-1.707-6.283c-0.34-2.042-0.295-4.148-0.696-6.361c-1.029,1.754-2.216,3.437-3.059,5.277
	c-5.172,11.3-9.791,21.491-9.315,34.145c0.238,6.323,1.199,12.563,3.481,18.529c0.102,0.266,0.143,0.555,0.125,0.863
	c-3.25-4.454-5.248-9.475-6.699-14.749c-0.146-0.026-0.291-0.051-0.436-0.077c-2.397,8.04-3.956,16.469-3.078,24.878
	c0.523,5.011,2.046,17.418,6.837,20.251c-3.08-1.821-5.214-4.3-6.952-7.167c-0.422-0.696-0.835-1.398-1.252-2.098
	c2.404,4.032,1.08,14.93,2.816,20.273c1.677,5.16,5.736,16.01,11.574,17.908c-4.318-1.404-7.915-4.229-10.974-7.848
	c-0.159,0.082-0.318,0.164-0.477,0.245c0.537,1.973,1.055,3.951,1.614,5.917c3.645,12.811,7.416,19.327,17.656,27.798
	c-3.136,0.333-5.88-0.705-8.715-2.489c1.51,0.951,4.429,14.855,5.552,17.522c4.187,9.945,12.929,19.85,24.442,20.179
	c0.24,0.007,0.479,0.07,0.68,0.103c-3.982,13.401-6.131,26.739-0.335,40.391c1.795-3.417,3.932-6.372,6.753-8.844
	c-0.314,10.441,2.308,20.021,6.657,29.191c0.849,1.789,1.985,3.45,3.088,5.104c0.271,0.406,0.934,0.551,1.416,0.816
	c0.05-0.512,0.227-1.048,0.131-1.53c-1.104-5.606-1.226-11.2,0.123-16.785c0.059-0.244,0.177-0.474,0.585-0.767
	c0.595,2.277,1.283,4.534,1.766,6.835c1.305,6.229,3.675,12.048,6.526,17.705c1.223,2.427,2.292,4.931,3.439,7.396
	c0.216,0.462,0.381,1.011,0.74,1.329c0.53,0.472,1.147,0.56,1.294-0.423c0.045-0.304,0.046-0.615,0.049-0.923
	c0.039-3.426,0.742-6.699,1.972-9.906c0.763-1.988,1.186-4.107,1.884-6.604c1.857,11.365,5.35,21.747,10.297,32.061
	c1.242-4.543,2.403-8.791,3.565-13.041c1.587,6.52,4.274,12.514,6.915,18.506c0.553,1.255,1.811,2.406,3.027,3.124
	c15.554,9.164,32.853,17.657,50.651,22.417c7.43,1.986,15.107,3.453,22.781,2.927c2.253-0.154,4.505-0.48,6.76-0.353
	c4.253,0.239,6.495,2.59,10.129,4.065c3.066,1.243,6.744,1.266,10.022,0.839c2.561-0.334,4.97-1.834,7.686-2.898
	c2.633,4.012,6.784,5.207,11.482,5.109c4.773-0.099,8.342-2.705,11.818-5.535c6.014,5.074,13.071,5.076,20.312,3.238
	c7.635-1.938,2.098-16.922,0.007-21.142c-12.22-24.665-38.615-22.709-62.063-20.845c-0.023-0.128-0.047-0.256-0.07-0.385
	c1.146-0.622,2.265-1.301,3.441-1.858c15.805-7.495,27.485-24.36,34.853-39.677c2.84-5.905,3.597-12.487,6.523-18.351
	c4.196-8.404,11.25-14.527,19.033-19.549c0.49-0.316,0.952-0.679,1.428-1.02c0.085,0.092,0.17,0.183,0.255,0.273
	c-0.351,0.513-0.616,1.118-1.064,1.522c-11.515,10.37-16.357,27.192-17.833,42.153c0.219-2.226,5.768-7.08,7.356-8.979
	c6.483-7.747,13.625-14.67,21.377-21.136c0.11,0.094,0.22,0.188,0.329,0.28c-0.692,1.305-1.396,2.603-2.075,3.915
	c-8.09,15.642-14.427,33.276-14.853,51.273c-0.036,1.525,0.243,3.058,0.411,4.952c5.152-11.481,9.596-24.064,18.43-33.332
	c-0.892,2.698-1.862,5.373-2.659,8.099c-4.604,15.756-8.395,29.211-5.778,45.871c0.192,0.066,0.386,0.133,0.578,0.199
	c0.527-0.941,1.207-1.831,1.553-2.836c1.938-5.635,3.488-11.729,6.292-17.003c-0.226,0.802-0.498,1.593-0.668,2.405
	c-1.13,5.406-2.825,10.742-3.097,16.286c-0.089,1.835,2.564,15.762,2.34,15.985c1.523-1.514,2.591-3.48,3.027-5.583
	c2.091,4.916,5.412,9.103,11.325,8.863c4.421-0.18,7.9-4.708,12.456-3.355c1.743,0.518,3.588,0.947,5.389,0.954
	c5.493,0.021,6.015-8.011,11.93-7.151c6.906,1.002,16.346-2.027,17.156-10.27c0.128-1.304,0.921-1.706,2.128-1.665
	c2.912,0.097,5.826,0.202,8.739,0.214c7.945,0.031,6.246-11.291,5.146-16.259c-0.934-4.22-3.008-8.304-6.398-10.983
	c-7.227-5.709-14.988-5.27-18.659-14.923c-10.936-28.754,4.817-58.325,27.156-76.298c9.001-7.241,20.397-12.547,31.288-16.186
	c-5.08,5.806-10.729,11.114-16.837,15.825c4.233,1.201,8.718,1.509,13.076,0.899c-1.884,4.9-5.581,9.079-10.214,11.547
	c3.623,0.733,7.353,0.943,11.035,0.623c-2.221,3.452-6.38,5.161-10.424,5.863c-9.443,1.64-17.717,1.624-25.503,8.24
	c-3.111,2.644-6.814,7.082-6.468,11.495c0.3,3.806,3.875,8.299,8.163,6.813c-2.542,4.812-0.595,11.478,4.136,14.166
	c1.382,0.784,3.017,1.323,3.903,2.642c1.316,1.958,0.609,5.117,2.576,6.42c1.822,1.207,4.848-0.105,6.15,1.649
	c0.447,0.604,0.515,1.395,0.671,2.129c4.18,19.645,34.441-13.129,39.396-18.515C442.742,327.399,471.471,273.112,457.105,230.508z
	 M130.987,117.434c-1.986-0.818-4.257-0.962-4.875-3.469c-0.449-1.822,0.56-4.25,2.114-5.276c1.995-1.317,3.962-1.328,5.979,0.042
	C130.443,111.493,129.762,113.288,130.987,117.434z M152.525,120.715c-1.79-0.078-2.969-1.437-2.857-3.296
	c0.08-1.343,1.012-2.293,2.216-2.259c2.137,0.06,3.528,1.332,3.413,3.122C155.198,119.812,154.092,120.783,152.525,120.715z
	 M164.393,127.942c-1.336,0.016-2.433-1.152-2.436-2.594c-0.003-1.546,0.845-2.437,2.312-2.426c1.24,0.009,2.299,1.095,2.319,2.375
	C166.61,126.767,165.647,127.927,164.393,127.942z M168.722,115.606c-1.405-0.018-2.657-1.21-2.616-2.492
	c0.037-1.167,1.028-2.111,2.205-2.1c1.254,0.012,2.416,1.214,2.417,2.504C170.729,114.662,169.81,115.619,168.722,115.606z
	 M178.939,129.014c-1.727-0.101-2.95-1.351-2.868-2.933c0.073-1.414,0.823-2.205,2.041-2.152c2.276,0.098,3.543,1.039,3.495,2.594
	C181.559,128.072,180.456,129.102,178.939,129.014z M192.875,156.793c-2.088,1.68-4.344,3.192-6.221,5.081
	c-1.307,1.314-2.223,3.077-3.095,4.752c-3.57,6.858-3.922,14.643-6.207,21.866c-1.184,3.744-3.029,7.271-7.005,8.909
	c-0.667,0.275-1.548,0.029-2.33,0.029c-3.206,0.001-5.045-1.872-6.571-4.465c-3.421-5.816-4.035-11.773-1.78-18.175
	c1.164-3.306,2.696-6.398,4.853-9.052c1.898-2.334,4.213-4.431,6.661-6.191c3.119-2.243,6.555-4.046,9.863-6.023
	c0.233-0.14,0.54-0.158,1.043-0.296c-1.374,1.499-2.798,2.666-3.722,4.145c-1.802,2.885-3.413,5.9-4.933,8.947
	c-1.133,2.271-2.282,4.602-2.901,7.04c-0.601,2.365-0.291,4.885-0.075,7.32c0.259,0.036,0.518,0.072,0.777,0.108
	c0.306-0.984,0.766-1.949,0.891-2.956c0.536-4.312,3.111-7.54,5.428-10.98c2.265-3.362,5.987-4.891,8.728-7.641
	c3.624-3.636,8.235-5.84,12.792-8.059c0.1,0.131,0.201,0.262,0.302,0.394C197.207,153.295,195.045,155.048,192.875,156.793z
	 M215.829,20.919c5.66,4.143,13.427,19.489,10.867,22.01c-2.04-3.266-4.051-6.485-6.243-9.995c0.204,4.303,0.395,8.339,0.586,12.375
	c-0.059,0.016-0.118,0.032-0.177,0.048c-1.587-5.398-3.174-10.797-4.761-16.196c-0.264,0.01-0.527,0.019-0.79,0.029
	c-0.254,5.378-0.508,10.756-0.762,16.134c-0.107,0.038-0.215,0.076-0.322,0.114c-0.794-2.948-1.587-5.897-2.422-8.997
	c-1.31,3.31-2.562,6.472-3.893,9.834C205.129,40.953,210.715,23.61,215.829,20.919z M188.892,58.586
	c-5.601-1.382-11.202-2.765-16.803-4.147c-0.075,0.175-0.15,0.35-0.226,0.525c4.372,3.922,10.111,5.427,15.11,8.166
	c-7.904-0.318-23.253-8.116-29.322-18.492c2.853-0.852,5.585-2.216,8.395-2.397c6.965-0.449,14.059-0.601,20.731,1.758
	c3.51,1.241,7.268,2.606,9.611,5.955c0.448,0.64,0.798,1.347,1.036,2.2c-4.107-2.535-8.311-4.506-13.287-4.556
	c3.177,2.31,6.216,4.519,9.254,6.728c-0.078,0.125-0.156,0.251-0.234,0.377c-2.664-1.259-5.353-2.469-7.984-3.791
	c-2.85-1.432-5.841-0.54-8.759-0.812c-0.073,0.15-0.146,0.301-0.218,0.451c4.266,2.614,8.532,5.228,12.797,7.842
	C188.96,58.456,188.926,58.521,188.892,58.586z M192.097,86.767c2.79-3.07,5.651-6.075,8.508-9.083
	c0.384-0.404,0.854-0.764,1.35-1.015c6.271-3.175,12.562-6.311,19.729-6.922c2.738-0.234,7.373,1.261,9.695,3.115
	c-16.366-1.127-29.503,5.42-40.829,16.373C191.001,88.5,191.417,87.514,192.097,86.767z M193.318,97.785
	c2.147-2.853,4.397-5.635,6.417-8.576c2.603-3.791,6.271-5.912,10.471-7.42c7.902-2.837,16.009-3.374,24.274-2.379
	c0.13,0.016,0.25,0.119,0.558,0.273c-0.467,0.253-0.784,0.465-1.13,0.606c-5.007,2.035-10.025,4.043-15.021,6.107
	c-1.309-1.67-3.339-2.747-5.625-2.747c-3.948,0-7.148,3.201-7.148,7.148c0,0.327,0.03,0.646,0.072,0.96
	c-4.19,2.096-8.409,4.134-12.62,6.188C193.484,97.892,193.401,97.838,193.318,97.785z M194.292,117.43
	c-1.066-3.522,1.402-8.804,4.494-9.616C199.611,110.71,196.702,116.937,194.292,117.43z M208,118.633
	c-0.156-0.046-2.888-8.247,1.846-12.766C212.795,112.25,208.682,117.399,208,118.633z M220.073,103.027
	c4.826,4.928,3.353,7.177,4.581,13.338C220.983,113.328,219.233,107.896,220.073,103.027z M195.85,100.982
	c0.878-0.346,1.752-0.702,2.634-1.038c3.349-1.275,6.689-2.572,10.059-3.79c1.26,1.111,2.909,1.791,4.721,1.791
	c3.676,0,6.7-2.775,7.101-6.344c4.549-1.768,14.226-6.008,14.675-5.935C227.576,94.105,220.278,104.787,195.85,100.982z
	 M231.765,98.588c3.59-0.507,7.522,2.878,8.528,6.187C236.416,104.979,233.083,102.592,231.765,98.588z M240.112,90.792
	c4.618-2.345,10.636,0.954,10.593,1.129C247.234,92.752,243.755,93.69,240.112,90.792z M243.667,422.058
	c4.247,1.497,8.304,3.266,10.483,7.621c1.17,2.339,1.182,4.643-0.248,6.857c-1.347,2.087-2.681,4.203-4.976,5.941
	c1.531-8.213-0.066-15.092-7.059-20.558C242.777,421.982,243.26,421.915,243.667,422.058z M225.357,426.738
	c2.182,1.631,3.563,3.843,4.139,6.615c0.659,3.171-1.14,5.142-3.034,7.113c-0.772,0.804-1.704,1.454-2.941,2.492
	c0-3.483,0.518-6.724-0.146-9.7c-0.659-2.953-2.509-5.642-3.878-8.533C221.678,424.296,223.616,425.436,225.357,426.738z
	 M391.172,201.104c1.236-2.781,3.497-5.25,5.925-6.387c4.606-2.16,10.274-1.354,14.559,1.393
	c7.642,4.899,11.311,14.889,9.905,23.666c-1.337,8.356-7.319,14.346-14.602,18.102c-9.121,4.704-21.709,7.041-25.558,17.878
	c-0.144-3.189,1.172-5.785,3.306-7.974c8.42-8.64,22.891-12.095,27.376-24.255c1.265-3.429,1.484-7.343,0.387-10.849
	c-0.341-1.089-4.944-7.92-4.939-7.934c-0.296,0.829-0.474,1.678-0.877,2.401c-2.383,4.276-9.239,6.99-13.522,3.936
	C389.687,208.626,389.611,204.617,391.172,201.104z M361.444,160.776c1.648,5.561,2.967,11.208,3.174,16.986
	c0.204,5.712-0.138,11.443-0.246,17.495c4.522-7.695,6.004-16.015,7.248-24.422c1.251-8.455,1.467-16.91,0.313-25.396
	c2.946,10.709,6.439,21.333,4.455,32.725c8.089-17.524,6.416-35.136,0.64-52.955c4.444,4.644,6.498,10.232,8.076,16.175
	c8.426,31.736-5.706,66.67-37.362,78.89c-23.08,8.91-50.438,4.067-63.837-17.646c-1.268-2.054-2.717-5.774-2.652-7.885
	c2.499,4.314,4.633,8.456,8.983,11.468c-0.779-3.867-1.529-7.332,0.92-10.899c1.649,5.091,3.218,9.934,4.771,14.73
	c2.056-5.218,0.532-10.742,1.345-16.152c2.284,5.714,4.676,11.349,5.53,17.559c2.082-6.323,4.372-12.535,4.526-19.272
	c0.142-0.017,0.283-0.033,0.424-0.049c1.596,5.474,3.19,10.947,4.913,16.86c1.499-7,2.938-13.723,4.367-20.403
	c1.802,8.198,4.021,16.487,3.822,25.224c5.253-9.063,6.149-19.273,7.734-29.339c2.147,10.284,4.026,20.572,2.294,31.162
	c5.521-11.712,8.238-24.031,7.979-37.399c2.688,4.461,4.557,22.798,3.469,31.837c1.685-1.96,3.543-8.251,5.332-18.641
	c1.107-6.428,1.819-12.902,1.493-19.46c2.606,11.378,3.868,22.841,2.415,34.567c0.473-1.062,1.04-2.092,1.402-3.19
	c1.62-4.917,3.386-9.799,4.721-14.795c2.353-8.804,3.76-17.77,3.579-26.928C361.267,161.345,361.308,161.065,361.444,160.776z
	 M310.237,160.357c1.364-8.633,1.097-17.12-1.372-25.495c0.165-0.05,0.33-0.101,0.495-0.151c2.506,5.421,5.011,10.843,7.628,16.506
	c-0.145-9.319-0.344-18.4-4.189-26.969c0.196-0.099,0.394-0.198,0.59-0.297c1.235,1.855,2.547,3.666,3.684,5.58
	c1.176,1.981,2.245,4.033,3.245,6.11c1,2.077,1.943,4.19,2.751,6.348c0.806,2.151,1.412,4.376,2.115,6.595
	c0.877-2.222,0.404-10.419-0.877-18.487c-0.975-6.132-2.205-12.211-5.021-17.863c7.438,7.353,12.385,16.196,15.597,26.091
	c-1.012-15.538-5.697-29.394-14.274-42.273c3.235,1.716,6.259,3.087,8.31,5.844c1.316,1.769,2.648,3.542,3.787,5.425
	c2.521,4.169,4.979,8.379,7.353,12.635c1.042,1.869,1.812,3.89,2.618,5.653c0.724-3.629-3.381-17.712-7.335-24.425
	c-4.416-7.498-9.277-14.644-16.479-19.932c0.257,0.057,0.529,0.074,0.767,0.176c8.134,3.476,14.697,8.999,20.004,15.948
	c2.788,3.65,5.016,7.728,7.501,11.61c1.513,2.363,3.035,4.719,4.553,7.078c-1.796-8.083-4.982-15.556-9.552-22.479
	c-4.566-6.919-10.314-12.672-16.763-17.883c1.067,0.454,2.156,0.861,3.196,1.37c6.165,3.016,12.063,6.507,16.861,11.449
	c2.872,2.959,5.377,6.331,7.7,9.752c1.875,2.76,3.752,5.711,4.726,8.857c7.748,25.036-11.585,48.621-32.836,59.237
	c-10.682,5.336-32.28,9.438-40.885-2.116c-2.192-2.944-4.264-5.98-6.381-8.981c0.128-0.128,0.257-0.257,0.385-0.385
	c2.601,2.063,5.2,4.125,7.801,6.188c0.085-0.051,0.169-0.102,0.254-0.153c-1.002-2.352-2.004-4.703-3.006-7.054
	c0.086-0.081,0.173-0.162,0.26-0.242c1.57,1.402,3.203,2.742,4.693,4.225c1.479,1.472,2.815,3.087,4.577,4.578
	c-0.722-3.533-1.443-7.065-2.164-10.597c0.075-0.047,0.151-0.094,0.228-0.141c2.363,3.122,4.727,6.243,7.271,9.606
	c-0.359-4.412-0.715-8.759-1.095-13.416c3.582,4.042,5.561,8.611,7.007,13.88c0.453-3.544,1.07-6.754,0.379-9.981
	c-0.684-3.19-1.576-6.336-2.483-9.923C306.794,147.373,309.324,153.486,310.237,160.357z M275.952,137.674
	c-2.439,0.568-4.903,1.035-7.355,1.548c-0.09-0.148-0.179-0.297-0.269-0.445c1.105-0.888,2.094-2.048,3.349-2.59
	c1.317-0.568,2.891-0.544,4.687-0.833c-1.147-1.269-2.144-2.371-3.356-3.711c2.77,0.356,5.271,0.678,8.204,1.055
	c-1.237-2.845-3.569-4.148-5.1-6.463c2.913,0.491,5.826,0.982,8.867,1.495c-1.805-3.861-4.917-6.67-8.122-9.558
	c4.085,0.691,8.169,1.383,12.392,2.098c-3.051-5.187-7.527-8.877-12.222-12.36c0.071-0.133,0.143-0.267,0.213-0.4
	c2.644,0.931,5.326,1.765,7.918,2.82c2.552,1.039,5.011,2.302,7.685,3.547c-1.592-3.771-3.76-7.158-6.618-9.862
	c-2.877-2.722-6.33-4.836-9.681-7.328c0.37,0.028,0.596,0.016,0.806,0.067c2.974,0.727,6.057,1.172,8.882,2.278
	c2.761,1.08,5.256,2.835,7.836,4.276c-1.71-3.572-4.387-6.61-7.272-9.4c-2.845-2.75-6.012-5.165-8.849-7.568
	c5.986,0.918,11.571,3.724,17.215,6.696c-0.595-2.286-5.859-8.592-9.531-11.136c-4.025-2.787-8.209-5.344-12.32-7.998
	c6.933,0.777,13.402,3.253,19.859,5.916c-7.672-6.14-15.294-12.283-25.231-15.375c5.173,0.062,12.861,2.324,18.285,5.262
	c0.36,0.195,0.705,0.431,1.084,0.582C315.475,81.509,301.174,131.801,275.952,137.674z M283.205,223.644
	c0.078,0.137,0.157,0.274,0.235,0.411c-1.755,1.759-3.505,3.522-5.266,5.276c-0.435,0.433-0.887,0.851-1.354,1.248
	c-0.761,0.646-1.604,1.856-2.3,1.781c-1.544-0.166-3.019-0.98-4.521-1.53c-0.006-0.22-0.012-0.44-0.019-0.66
	C274.389,227.995,278.797,225.819,283.205,223.644z M268.36,229.604c-1.243-1.417-2.468-2.814-3.841-4.38
	c4.074-1.566,7.859-3.021,12.011-4.616C273.673,223.752,271.104,226.582,268.36,229.604z M274.961,215.691
	c0.107,0.225,0.215,0.449,0.322,0.673c-3.856,2.075-7.712,4.15-11.641,6.264c-0.904-1.328-0.863-2.046,0.414-2.547
	C267.705,218.65,271.328,217.159,274.961,215.691z M264.294,215.148c3.098-0.986,6.126-2.194,9.183-3.31
	c-2.995,3.057-6.692,4.777-10.649,6.193C262.512,216.558,262.716,215.65,264.294,215.148z M241.008,224.331
	c3.152-0.898,6.283-1.874,9.422-2.816c0.47-0.141,0.94-0.277,1.411-0.416c0.082,0.196,0.164,0.391,0.246,0.587
	c-4.376,2.037-8.753,4.074-13.167,6.127C238.662,225.832,239.372,224.797,241.008,224.331z M250.298,233.081
	c-3.345,1.572-6.691,3.143-10.075,4.733c-0.276-0.445-0.482-0.731-0.639-1.043c-0.134-0.266-0.213-0.561-0.403-1.079
	c3.696-1.054,7.316-2.086,10.936-3.118C250.178,232.742,250.238,232.912,250.298,233.081z M240.926,229.008
	c2.556-0.398,5.142-0.606,7.792-0.562c-3.32,1.407-6.64,2.814-10.092,4.277C238.095,229.527,238.083,229.452,240.926,229.008z
	 M228.288,245.297c-0.991,0.285-1.973,0.608-2.974,0.85c-3.438,0.831-6.893,1.595-10.318,2.472
	c-0.949,0.243-1.474,0.031-1.792-0.843c-0.417-1.143-0.833-2.286-1.368-3.759c5.742,0.26,11.066,0.501,16.39,0.743
	C228.245,244.938,228.267,245.118,228.288,245.297z M213.179,228.258c1.082-2.188,1.324-2.226,3.805-2.11
	c2.654,0.123,5.317,0.051,7.976,0.063c0.478,0.002,0.956,0,1.453,0.187c-4.295,2.394-9.224,2.285-13.696,3.895
	c-0.088-0.124-0.176-0.249-0.264-0.373C212.693,229.365,212.911,228.799,213.179,228.258z M213.822,232.124
	c2.246-0.189,4.512-0.129,6.77-0.179c-0.007,0.129-0.014,0.258-0.021,0.386c-2.942,0.96-5.884,1.919-8.835,2.882
	C211.233,232.648,211.376,232.33,213.822,232.124z M222.404,238.139c0.018,0.077,0.035,0.154,0.052,0.232
	c-3.643,1.064-7.286,2.129-11.151,3.258c-0.09-1.395-0.173-2.68-0.265-4.101C214.974,237.74,218.689,237.94,222.404,238.139z
	 M179.236,229.784c2.057-4.216,2.053-4.16,6.725-3.847c3.27,0.219,6.552,0.253,9.828,0.381c0.524,0.021,1.046,0.101,1.568,0.154
	c0.006,0.157,0.012,0.314,0.018,0.472c-6.076,1.235-12.152,2.47-18.498,3.759C179.089,230.158,179.148,229.964,179.236,229.784z
	 M196.315,245.715c-0.79,0.304-1.557,0.717-2.374,0.892c-3.247,0.693-6.517,1.278-9.763,1.973c-1.37,0.293-1.953-0.438-2.574-1.749
	c4.959-0.55,9.758-1.083,14.558-1.616C196.213,245.381,196.264,245.548,196.315,245.715z M179.408,233.112
	c3.671-0.009,7.343-0.003,10.208-0.003c-3.36,0.655-7.539,1.469-11.714,2.282C177.496,233.446,177.721,233.116,179.408,233.112z
	 M191.978,239.457c0.025,0.107,0.049,0.215,0.074,0.323c-3.846,1.635-7.685,3.287-11.55,4.874c-0.295,0.122-0.958-0.081-1.14-0.346
	c-1.268-1.852-1.844-3.932-1.949-6.133C182.378,238.612,187.178,239.034,191.978,239.457z M164.812,279.325
	c1.428,0.243,2.79,0.815,4.012,1.584c0.202,0.127,1.512,0.842,1.512,1.131c0-0.289,1.311-1.004,1.513-1.131
	c1.222-0.769,2.584-1.341,4.012-1.584c3.524-0.599,7.13,1.242,9.235,4.021c1.891,2.496,2.71,5.696,2.681,8.828
	c-0.038,4.143-1.34,8.203-3.194,11.875c-0.953,1.886-2.065,3.69-3.304,5.402c-0.587,0.811-2.583,3.415-3.104,4.072
	c0.098-1.398,0.92-10.516,0.92-10.516l-3.533,7.54l-0.5-10.251c0,0-2.343,9.259-2.409,8.995c-0.066-0.265-2.315-17.395-2.315-17.395
	s-2.249,17.13-2.314,17.395c-0.066,0.265-2.41-8.995-2.41-8.995l-0.5,10.251l-3.533-7.54c0,0,0.685,8.445,0.92,10.516
	c-0.596-0.707-2.517-3.261-3.104-4.072c-1.239-1.711-2.352-3.516-3.304-5.402c-1.854-3.671-3.156-7.732-3.195-11.875
	c-0.029-3.132,0.79-6.332,2.681-8.828C157.682,280.566,161.287,278.726,164.812,279.325z M188.748,289.017
	c3.33,0.805,5.362,1.319,7.371,4.574c-2.937,1.436-2.765,0.947-7.06,4.076C189.886,293.557,188.748,289.017,188.748,289.017z
	 M195.019,295.794c2.698-1.591,5.878-2.481,8.986-2.092c3.458,0.434,6.856,2.635,8.099,5.987c0.504,1.357,0.689,2.824,0.634,4.267
	c-0.009,0.238,0.027,1.73-0.223,1.875c0.25-0.145,1.525,0.633,1.736,0.745c1.277,0.674,2.454,1.567,3.377,2.682
	c2.281,2.753,2.49,6.796,1.136,10.008c-1.217,2.886-3.579,5.195-6.305,6.736c-3.607,2.038-7.774,2.94-11.881,3.171
	c-2.11,0.117-4.229,0.057-6.331-0.161c-0.995-0.103-4.248-0.529-5.078-0.652c1.26-0.614,9.567-4.461,9.567-4.461l-8.296,0.711
	l8.628-5.56c0,0-9.191,2.601-8.995,2.411s13.907-10.703,13.907-10.703s-15.959,6.618-16.222,6.693s6.585-6.584,6.585-6.584
	l-9.129,4.692l4.764-6.83c0,0-6.972,4.815-8.647,6.056c0.314-0.87,1.566-3.811,1.975-4.725c0.862-1.929,1.869-3.794,3.026-5.563
	C188.585,301.057,191.451,297.899,195.019,295.794z M213.224,356.131c0.055,1.442-0.13,2.909-0.634,4.267
	c-1.243,3.352-4.641,5.554-8.1,5.987c-3.107,0.389-6.288-0.502-8.986-2.093c-3.568-2.104-6.434-5.262-8.686-8.704
	c-1.157-1.768-2.164-3.634-3.026-5.563c-0.409-0.913-1.666-3.943-1.974-4.724c1.162,0.784,8.647,6.055,8.647,6.055l-4.763-6.829
	l9.128,4.692c0,0-6.848-6.659-6.585-6.584c0.262,0.074,16.222,6.692,16.222,6.692s-13.711-10.513-13.907-10.702
	c-0.196-0.189,8.995,2.411,8.995,2.411l-8.628-5.56l8.296,0.71c0,0-7.656-3.63-9.567-4.461c0.91-0.163,4.083-0.55,5.078-0.652
	c2.102-0.217,4.221-0.278,6.331-0.16c4.106,0.229,8.274,1.133,11.881,3.17c2.727,1.541,5.088,3.851,6.305,6.736
	c1.354,3.213,1.146,7.256-1.135,10.008c-0.924,1.115-2.101,2.009-3.378,2.683c-0.21,0.111-1.485,0.889-1.735,0.744
	C213.251,354.401,213.215,355.893,213.224,356.131z M189.486,361.93c3.373,3.486,7.909,5.117,7.909,5.117
	c-2.361,2.481-3.519,3.972-7.342,4.084C190.277,367.871,190.048,367.215,189.486,361.93z M179.02,332.631
	c0.573-0.047,1.148-0.069,1.731-0.036c1.347,0.078,2.679,0.362,3.947,0.819c1.733,0.624,3.399,2.241,2.794,4.251
	c-0.462,1.535-2.08,1.92-3.496,1.612c-1.841-0.4-3.526-1.675-4.837-2.985c-0.563-0.563-2.253-2.893-2.594-3.401
	C177.144,332.783,178.202,332.699,179.02,332.631z M176.435,326.472c0.239-0.538,0.77-1.457,1.178-2.168
	c0.287-0.498,0.594-0.984,0.953-1.446c0.828-1.064,1.817-2,2.913-2.786c1.497-1.073,3.774-1.527,5.086,0.11
	c1.003,1.252,0.401,2.803-0.655,3.794c-1.374,1.289-3.379,1.954-5.202,2.29C179.924,326.411,177.047,326.481,176.435,326.472z
	 M206.353,329.939c3.974-1.339,8.23-3.779,8.23-3.779c0.904,2.977,1.386,4.612,0.147,7.266
	C212.019,331.6,210.204,330.855,206.353,329.939z M170.857,334.42c-2.401,0-4.348-1.946-4.348-4.348s1.947-4.348,4.348-4.348
	c2.402,0,4.348,1.946,4.348,4.348S173.259,334.42,170.857,334.42z M171.633,348.28c-1.579,0.28-2.651-0.991-3.015-2.395
	c-0.472-1.823-0.094-3.902,0.486-5.663c0.249-0.757,1.568-3.314,1.869-3.849c0.357,0.469,0.91,1.375,1.337,2.074
	c0.3,0.49,0.579,0.994,0.812,1.53c0.537,1.237,0.884,2.555,1.047,3.893C174.393,345.699,173.699,347.915,171.633,348.28z
	 M170.423,312.042c1.587-0.232,2.621,1.069,2.942,2.483c0.418,1.836-0.022,3.903-0.653,5.646c-0.271,0.75-1.665,3.267-1.982,3.792
	c-0.344-0.479-0.868-1.401-1.275-2.113c-0.285-0.499-0.549-1.011-0.766-1.553c-0.5-1.253-0.807-2.58-0.931-3.922
	C167.588,314.54,168.347,312.345,170.423,312.042z M156.005,336.137c1.333-1.331,3.317-2.059,5.128-2.451
	c0.779-0.169,3.652-0.328,4.265-0.339c-0.222,0.545-0.725,1.48-1.11,2.203c-0.271,0.508-0.563,1.003-0.907,1.476
	c-0.795,1.09-1.754,2.056-2.825,2.875c-1.463,1.12-3.725,1.646-5.087,0.049C154.427,338.73,154.979,337.162,156.005,336.137z
	 M154.479,321.969c0.492-1.526,2.117-1.879,3.527-1.543c1.832,0.437,3.493,1.743,4.777,3.079c0.552,0.575,2.196,2.937,2.526,3.453
	c-0.581,0.097-1.64,0.16-2.458,0.211c-0.574,0.035-1.149,0.047-1.731,0.001c-1.345-0.104-2.671-0.414-3.931-0.896
	C155.468,325.617,153.834,323.967,154.479,321.969z M161.435,248.004c-2.744,0.745-5.471,1.567-8.244,2.181
	c-0.743,0.165-1.628-0.31-2.447-0.491c-0.006-0.208-0.013-0.416-0.019-0.624c3.553-0.473,7.105-0.946,10.658-1.419
	C161.401,247.768,161.418,247.886,161.435,248.004z M152.716,299.954c-4.76-4.61-8.996-6.342-8.996-6.342
	c1.949-2.766,4.498-4.453,7.646-4.097C151.292,292.234,151.292,294.452,152.716,299.954z M157.342,241.372
	c-3.307,1.794-6.606,3.605-9.941,5.347c-0.232,0.122-0.87-0.162-1.08-0.438c-0.58-0.767-1.033-1.629-1.76-2.82
	c4.462-0.817,8.567-1.569,12.672-2.321C157.27,241.217,157.306,241.295,157.342,241.372z M148.912,228.412
	c1.89-0.002,3.78-0.096,5.67-0.124c0.295-0.004,0.592,0.125,1.154,0.254c-4.157,1.685-8.073,3.271-12.04,4.878
	C143.996,229.818,145.515,228.415,148.912,228.412z M144.544,236.266c3.185-0.71,6.395-1.309,9.601-1.919
	c0.932-0.177,1.879-0.274,2.819-0.407c0.024,0.122,0.049,0.243,0.074,0.365c-4.389,2.087-8.777,4.175-13.422,6.384
	c-0.138-1.076-0.418-2.166-0.345-3.23C143.301,237.02,144.034,236.379,144.544,236.266z M146.139,296.635
	c3.568,2.105,6.434,5.262,8.687,8.704c1.157,1.768,2.164,3.634,3.026,5.563c0.409,0.913,1.666,3.943,1.975,4.724
	c-1.162-0.783-8.647-6.055-8.647-6.055l4.763,6.829l-9.128-4.691c0,0,6.847,6.659,6.585,6.584s-16.222-6.693-16.222-6.693
	s13.711,10.512,13.907,10.702c0.196,0.19-8.995-2.41-8.995-2.41l8.628,5.56l-8.296-0.711c0,0,7.656,3.63,9.568,4.461
	c-0.911,0.163-4.083,0.55-5.079,0.652c-2.102,0.218-4.221,0.278-6.33,0.161c-4.107-0.23-8.274-1.133-11.881-3.171
	c-2.727-1.541-5.088-3.851-6.305-6.736c-1.354-3.212-1.146-7.255,1.135-10.008c0.924-1.115,2.101-2.009,3.378-2.682
	c0.21-0.112,1.485-0.889,1.735-0.745c-0.25-0.145-0.214-1.638-0.223-1.875c-0.055-1.443,0.131-2.909,0.634-4.267
	c1.243-3.352,4.641-5.554,8.1-5.987C140.26,294.154,143.441,295.044,146.139,296.635z M135.315,330.952
	c-5.106,1.405-9.408,4.543-9.408,4.543c-0.909-2.107-1.359-6.398,0.371-8.436C129.853,329.518,131.885,329.932,135.315,330.952z
	 M134.627,266.742c-1.104,0.117-2.042,0.217-3.294,0.351c1.468-3.931,4.37-11.258,4.441-11.226
	C135.394,259.473,135.014,263.079,134.627,266.742z M133.438,255.523c-1.432,3.654-2.846,7.315-4.329,10.949
	c-0.117,0.287-0.73,0.569-1.075,0.529c-1.3-0.149-2.584-0.432-4.354-0.75C126.971,262.367,133.291,255.432,133.438,255.523z
	 M121.973,265.379c-1.58-1.139-3.082-2.221-4.761-3.432c3.493-2.553,6.759-4.94,10.025-7.328
	C127.341,254.709,123.931,261.697,121.973,265.379z M115.288,260.481c-1.001-0.991-1.864-1.845-2.84-2.81
	c3.727-3.923,8.442-5.979,12.635-8.831C121.889,252.635,118.695,256.431,115.288,260.481z M110.969,251.538
	c4.058-2.46,12.306-7.224,12.345-7.19c-3.959,3.683-7.919,7.365-12.014,11.173c-0.271-0.875-0.649-1.861-0.853-2.882
	C110.381,252.31,110.668,251.721,110.969,251.538z M97.309,288.606c3.532-3.342,10.457-9.66,10.514-9.597
	c-2.016,4.25-4.031,8.5-6.163,12.994C100.179,290.847,98.756,289.736,97.309,288.606z M98.719,308.161
	c-1.261,2.653-2.472,5.331-3.8,7.949c-0.855,1.687-1.942,3.255-2.811,4.935c-0.511,0.989-1.079,1.065-1.939,0.544
	c-1.517-0.92-3.049-1.816-4.75-2.826C89.776,315.079,98.58,308.066,98.719,308.161z M95.155,280.487
	c3.304-3.042,6.544-6.153,10.008-9.421c-3.203,5.305-6.257,10.362-9.348,15.48c-0.346-0.4-0.726-0.808-1.071-1.243
	C92.9,282.984,92.993,282.479,95.155,280.487z M91.669,301.561c0.139,0.114-5.6,10.652-8.736,16.025
	c-1.412-1.216-2.775-2.37-4.112-3.556c-0.335-0.297-0.583-0.691-1.015-1.215C82.472,309.027,87.071,305.294,91.669,301.561z
	 M76.564,309.724c0.045-0.058-0.875-1.472-0.94-1.643c-0.343-0.9,0.066-1.954,0.456-2.77c0.49-1.022,1.103-2.008,1.905-2.816
	c0.843-0.849,1.915-1.28,2.881-1.955c1.452-1.013,5.125-3.251,5.184-3.182C82.895,301.472,79.738,305.587,76.564,309.724z
	 M85.776,258.019c-0.87-0.292-6.637,2.694-8.102,2.94c-3.269,0.55-6.685,0.823-9.994,1.037c-6.678,0.432-13.593,0.075-19.738-2.826
	c-3.232-1.525-6.114-3.688-8.971-5.834c3.686,2.768,12.033,2.354,16.415,2.747C65.095,256.953,76.479,254.896,85.776,258.019z
	 M76.288,138.462c0.314-5.271,1.334-10.499,2.986-15.513c3.697-11.225,10.584-21.513,20.003-28.714
	c1.102-0.842,7.189-3.61,7.585-4.368c-1.947,3.719-5.578,6.147-8.505,9.02c-3.097,3.041-5.851,6.422-8.205,10.069
	c-4.71,7.296-7.827,15.629-8.966,24.243c-0.815,6.17-0.659,12.508-2.364,18.494c-0.01-0.023-0.021-0.047-0.031-0.072
	C76.719,146.852,76.006,143.744,76.288,138.462z M59.234,148.661c0.506-6.446,0.949-12.897,2.616-19.181
	c1.056-3.979,2.432-7.793,4.82-11.242c2.562-3.701,4.678-7.681,7.199-11.409c-8.652,12.799-11.465,28.777-10.953,43.99
	c0.263,7.805,1.405,15.586,3.347,23.148c0.93,3.62,2.044,7.194,3.363,10.691c0.641,1.699,1.33,3.316,1.771,5.08
	c0.438,1.75-0.035,5.386,0.757,6.793c-1.418-2.524-2.833-5.05-4.257-7.571C60.819,176.428,58.111,162.961,59.234,148.661z
	 M48.254,136.338c-1.697,2.789-1.596,9.92-1.905,13.111c-1.19,12.266,0.553,25.062,5.303,36.594
	c2.417,5.868,5.592,11.421,9.426,16.479c3.581,4.725,9.616,8.716,11.984,13.979c-0.125,0.124-0.251,0.248-0.377,0.372
	c-0.72-0.296-1.461-0.548-2.156-0.894c-16.302-8.113-24.359-27.888-26.881-44.859C41.896,159.329,42.304,146.667,48.254,136.338z
	 M31.884,170.135c-0.777,3.229,0.453,8.913,1.137,12.125c4.597,21.556,20.11,34.959,40.699,41.006
	c0.688,0.202,1.362,0.456,2.037,0.701c0.136,0.049,0.248,0.163,0.525,0.354c-5.178,0-10.304,0.513-15.304-0.978
	c-4.574-1.364-8.884-3.578-12.71-6.427C34.105,206.367,27.781,187.182,31.884,170.135z M25.85,210.771
	c0.374,3.709,5.428,7.008,7.897,9.369c11.25,10.758,25.014,17.739,40.79,18.479c-4.076,0-8.035,2.319-12.2,2.31
	c-4.579-0.009-9.089-1.581-13.066-3.761c-6.807-3.732-14.66-9.223-19.275-15.491C27.692,218.547,26.236,214.627,25.85,210.771z
	 M30.868,271.561c0.617,0.218,1.01,0.33,1.38,0.494c13.225,5.831,29.015,5.46,42.33,0.115c2.024-0.813,5.876-2.748,7.701-0.882
	c0.043,0.045,0.086,0.091,0.127,0.141c-6.68,3.467-13.77,7.337-21.227,8.771c-7.767,1.472-16.367,0.604-23.542-2.778
	C34.947,276.152,32.54,274.087,30.868,271.561z M38.695,292.746c0.472,0.69,6.973,0.389,8.146,0.443
	c3.268,0.15,6.544,0.245,9.813,0.07c6.405-0.341,12.382-2.222,18.604-3.584c-1.607,1.395-2.934,2.79-4.488,3.852
	C63.103,298.768,44.917,301.849,38.695,292.746z M55.205,311.765c-2.298,1.005-4.59,0.946-6.574-0.945
	c-0.607-0.578-1.351-1.013-1.982-1.654c5.904,0.416,11.412-1.652,17.536-2.391c-0.686,0.572-1.02,0.963-1.442,1.184
	C60.247,309.261,57.78,310.638,55.205,311.765z M60.518,345.887c0.112-0.281-1.05-2.601-1.137-3.003
	c-0.296-1.372-0.346-2.792-0.328-4.192c0.035-2.656,0.385-5.537,1.892-7.8c1.609-2.416,4.368-3.75,6.679-5.374
	c0.318-0.223,0.701-0.354,1.305-0.65C66.048,332.066,63.295,338.945,60.518,345.887z M80.644,329.561
	c-6.706,11.557-7.918,24.257-7.711,37.253c-0.018-1.096-0.983-2.292-1.369-3.303c-0.636-1.669-0.907-3.509-1.182-5.286
	c-0.588-3.791-0.807-7.663-0.288-11.476c0.863-6.349,3.929-11.252,8.387-15.68c0.372-0.369,0.875-1.101,1.338-1.329
	C79.722,329.789,80.902,329.117,80.644,329.561z M88.333,380.645c-0.207-0.337-0.687-0.909-0.943-1.569
	c-3.256-8.366-5.213-16.959-4.265-26.009c0.75-7.152,12.482-19.036,12.58-18.902C87.577,348.854,87.68,364.764,88.333,380.645z
	 M102.677,394.214c0.088-1.093-1.125-3.268-1.458-4.44c-1.716-6.041-2.33-12.399-1.696-18.652
	c0.536-5.285,1.651-11.604,6.238-14.966C104.741,368.741,103.712,381.438,102.677,394.214z M103.316,321.837
	c-0.825,2.103-1.797,2.467-4.026,2.019c-1.751-0.353-3.496-0.734-5.244-1.104c-0.114-0.165-0.229-0.33-0.343-0.495
	c4.556-4.262,9.111-8.523,13.667-12.785C107.485,309.577,104.878,317.858,103.316,321.837z M108.955,294.344
	c-1.657-0.497-3.32-0.971-5.133-1.499c3.388-3.784,10.107-10.968,10.216-10.931c-0.445,1.611-0.853,3.234-1.345,4.832
	c-0.677,2.196-1.458,4.361-2.113,6.564C110.311,294.213,109.918,294.633,108.955,294.344z M112.672,294.655
	c0.303-0.65,0.485-1.349,0.895-1.869c2.856-3.62,8.962-11.017,9.393-11.321c-0.908,4.379-1.746,8.471-2.628,12.552
	c-0.055,0.252-0.463,0.604-0.713,0.609C117.38,294.675,115.14,294.655,112.672,294.655z M123.8,413.997
	c-1.087-1.951-2.027-3.985-2.808-6.079c-1.029-2.756-1.795-5.908-0.748-8.774c1.063-2.908,3.543-5.069,5.726-7.144
	c-1.412,1.342-1.297,4.605-1.569,6.426c-0.954,6.382,0.334,12.137,2.258,18.187C125.268,416.579,124.396,415.067,123.8,413.997z
	 M137.638,367.225c-3.459-0.433-6.856-2.635-8.1-5.986c-0.503-1.357-0.689-2.824-0.634-4.267c0.009-0.238-0.028-1.73,0.223-1.876
	c-0.25,0.145-1.525-0.633-1.735-0.744c-1.277-0.674-2.454-1.567-3.378-2.683c-2.281-2.753-2.49-6.796-1.135-10.008
	c1.216-2.886,3.578-5.195,6.305-6.736c3.607-2.037,7.774-2.94,11.881-3.17c2.11-0.118,4.229-0.057,6.331,0.16
	c0.996,0.103,4.249,0.529,5.078,0.652c-1.26,0.614-9.567,4.461-9.567,4.461l8.296-0.71l-8.628,5.56c0,0,9.191-2.601,8.995-2.411
	c-0.196,0.189-13.907,10.702-13.907,10.702s15.959-6.618,16.222-6.693c0.262-0.074-6.585,6.584-6.585,6.584l9.128-4.691
	l-4.763,6.829c0,0,6.971-4.814,8.647-6.055c-0.314,0.869-1.566,3.811-1.975,4.724c-0.862,1.929-1.869,3.795-3.026,5.563
	c-2.252,3.441-5.118,6.6-8.687,8.704C143.927,366.724,140.746,367.615,137.638,367.225z M146.982,425.788
	c-6.661-5.133-9.709-12.013-5.093-19.305c1.132-1.789,3.262-2.946,5.233-4.225C144.076,410.122,145.266,417.881,146.982,425.788z
	 M152.772,371.131c-2.811,0-4.845-0.809-6.854-4.063c2.937-1.436,2.794-1.436,7.09-4.564
	C152.182,366.614,152.772,371.131,152.772,371.131z M156.548,377.583c-1.891-2.496-2.71-5.696-2.681-8.828
	c0.039-4.143,1.34-8.203,3.194-11.875c0.953-1.886,2.065-3.69,3.304-5.401c0.587-0.811,2.583-3.415,3.104-4.072
	c-0.098,1.398-0.92,10.517-0.92,10.517l3.533-7.54l0.501,10.252c0,0,2.343-9.26,2.409-8.995c0.066,0.265,2.315,17.395,2.315,17.395
	s2.249-17.13,2.315-17.395c0.066-0.265,2.409,8.995,2.409,8.995l0.5-10.252l3.533,7.54c0,0-0.685-8.445-0.92-10.517
	c0.596,0.707,2.517,3.262,3.104,4.072c1.239,1.711,2.352,3.516,3.304,5.401c1.854,3.672,3.156,7.732,3.195,11.875
	c0.029,3.132-0.791,6.332-2.681,8.828c-2.105,2.779-5.71,4.62-9.235,4.021c-1.427-0.242-2.79-0.814-4.012-1.584
	c-0.202-0.127-1.512-0.841-1.512-1.131c0,0.29-1.311,1.004-1.513,1.131c-1.222,0.77-2.584,1.342-4.012,1.584
	C162.258,382.203,158.652,380.362,156.548,377.583z M193.278,414.712c-7.703,0.823-14.691,3.375-20.36,8.81
	c-1.604,1.538-2.775,3.526-4.156,5.301c-0.672,0.863-1.368,1.709-2.072,2.586c-2.447-3.446-4.714-6.641-7.193-10.134
	c2.668,0.718,4.971,1.337,7.397,1.99c0-3.005,0-5.839,0-8.938c2.202,1.385,4.272,2.687,6.749,4.243
	c0.181-2.839,0.337-5.294,0.51-7.997c2.121,1.375,4.105,2.661,6.568,4.259c0.652-2.529,1.183-4.584,1.771-6.866
	c0.807,0.765,1.481,1.521,2.271,2.122c0.809,0.614,1.732,1.079,2.752,1.699c0.44-1.082,0.831-2.046,1.202-2.961
	c2.056,1.865,4.044,3.67,6.189,5.617C194.382,414.532,193.833,414.653,193.278,414.712z M202.454,440.073
	c-0.743,1.678-2.422,2.16-3.964,2.969c0.831-2.863,0.561-5.657,0.335-8.5c-0.23-2.91-1.957-5.065-3.302-7.441
	C201.95,429.338,205.075,434.156,202.454,440.073z M234.443,363.481c-5.308,10.518-13.374,19.501-22.769,26.541
	c-7.456,5.587-19.973,14.25-29.692,14.47c6.165-0.125,12.794-8.021,17.002-11.796c6.539-5.867,13.153-11.364,18.491-18.426
	c12.638-16.723,19.65-38.988,16.142-59.895c-2.437-14.521-10.271-28.072-21.638-37.43c-11.367-9.357-26.17-14.441-40.888-14.043
	c16.986-0.46,28.823-3.73,43.823,6.535C245.014,290.036,250.08,332.5,234.443,363.481z M243.956,242.252
	c-0.902-0.728-1.708-1.578-2.55-2.381c0.031-0.194,0.062-0.388,0.093-0.582c4.888-0.558,9.775-1.115,14.663-1.672
	c0.064,0.178,0.128,0.355,0.192,0.534c-1.416,0.724-2.778,1.593-4.26,2.136c-2.254,0.827-4.585,1.449-6.899,2.103
	C244.814,242.497,244.233,242.476,243.956,242.252z M259.279,264.034c-0.926,0.674-1.64,1.641-2.451,2.472
	c0.05,0.132,0.101,0.263,0.151,0.395c0.879,0,1.762-0.059,2.635,0.01c4.341,0.342,7.112,4.049,6.206,8.316
	c-0.478,2.251-2.139,3.627-3.97,4.674c-3.859,2.205-10.575,1.175-13.77-1.947c-1.504-1.47-2.158-3.245-2.353-5.346
	c-1.727-18.618,23.693-27.904,37.122-17.6c14.246,10.932,13.831,36.799,35.752,38.477c1.119,0.085,2.237,0.185,3.356,0.277
	c-8.137-0.675-14.667,1.871-21.415-4.29c-5.722-5.224-9.29-12.339-13.521-18.713c-1.84-2.772-3.882-5.504-6.641-7.363
	C274.234,259.254,265.189,259.73,259.279,264.034z M304.503,434.344c4.001-8.361,3.014-15.169-5.194-20.089
	c4.23-0.963,7.596,1.788,9.493,6.001C311.563,426.389,310.255,430.554,304.503,434.344z M313.044,389.658
	c-0.756-2.929-1.512-5.856-2.261-8.758c-3.025,4.647-4.828,9.995-6.601,15.357c-0.194-0.032-0.39-0.064-0.585-0.097
	c-0.271-3.943-0.544-7.887-0.824-11.95c-3.133,5.135-4.135,11.064-6.358,16.227c-1.38-5.23-1.385-14.859,0.158-20.14
	c0.162-0.555,0.716-1.096,1.227-1.432c6.438-4.244,13.492-7.181,20.838-9.372c2.468-0.736,5.134-0.94,7.726-1.077
	c1.913-0.102,2.239,0.521,2.313,2.404c0.149,3.842,0.365,7.68,0.572,11.897c-1.344-2.475-2.527-4.655-3.942-7.261
	c-1.283,4.004-2.48,7.739-3.825,11.936c-1.264-3.358-2.388-6.346-3.512-9.333c-0.16,0.008-0.32,0.015-0.479,0.022
	c-1.355,3.836-2.71,7.673-4.065,11.51C313.298,389.614,313.171,389.636,313.044,389.658z M298.61,349.426
	c2.965,4.907,2.627,16.582-0.442,20.416C295.875,363.006,296.317,356.381,298.61,349.426z M310.071,347.903
	c2.784,3.238,2.51,10.994-0.612,16.212C306.193,362.258,306.808,351.209,310.071,347.903z M319.793,349.252
	c0.349-1.102,1.385-1.986,2.385-2.841c1.066,4.844,0.989,9.424-1.877,13.651C319.101,356.489,318.651,352.862,319.793,349.252z
	 M325.49,427.011c0.41-3.986-0.108-7.452-1.528-10.767c-1.253-2.926-3.642-4.737-6.256-6.315c-0.976-0.588-1.975-1.138-3.156-1.815
	c3.992-1.678,9.695,1.834,11.734,5.252C329.018,417.95,328.844,423.395,325.49,427.011z M336.62,397.68
	c5.261,2.393,9.586,7.493,9.494,13.678c-0.025,1.721-0.712,3.142-2.04,4.696c0.614-3.712-1.914-9.793-4.815-12.604
	c-3.322-3.221-7.206-5.319-11.838-6.104c0.046-0.206,0.092-0.412,0.138-0.618c1.692-0.058,3.399-0.271,5.074-0.122
	C333.986,396.727,335.379,397.116,336.62,397.68z M334.206,308.974c-3.017-1.543-6.13-2.709-9.513-2.983
	c-3.358-0.271-6.566,0.324-9.653,1.677c5.014,0.651,10.261-0.154,15.212,2.971c-7.473-0.468-14.35,0.665-21.141,2.435
	c0.006,0.192,0.011,0.385,0.017,0.578c2.973,0.083,5.944,0.207,8.917,0.24c3.18,0.034,6.361-0.061,9.541-0.003
	c0.969,0.018,1.933,0.352,3.273,0.613c-7.049,2.662-28.432,4.604-36.167,3.408c2.352,1.499,10.38,2.781,17.058,3.047
	c5.871,0.232,11.684,0.105,17.424-1.338c0.042,0.146,0.085,0.292,0.128,0.438c-3.009,1.12-5.954,2.486-9.045,3.289
	c-3.097,0.805-6.324,1.24-9.521,1.481c-3.251,0.244-6.534,0.054-9.803,0.054c10.955,3.283,21.785,4.171,32.155-2.331
	c-0.307,1.569-4.534,5.101-9.563,7.204c-3.728,1.559-7.779,2.343-11.268,3.351c1.942,0.879,12.976,0.97,18.886-2.393
	c-0.231,0.477-0.324,0.777-0.501,1.014c-1.931,2.571-4.491,4.132-7.621,4.846c-10.428,2.38-21.025-0.824-29.476-7.059
	c-7.016-5.176-12.196-11.554-17.558-18.233c-0.343-0.427-0.729-0.82-0.927-1.535c7.209,1.945,14.908,2.756,22.313,1.216
	c12.056-2.506,20.992-12.756,33.987-10.405c3.395,0.614,6.768,4.223,6.732,7.561c-3.591-3.677-7.665-5.711-12.88-4.975
	C328.913,304.119,331.535,306.552,334.206,308.974z M335.983,283.711c2.15,2.024,4.639,3.69,6.889,5.442
	c-4.074,0.497-7.165-2.072-10.403-4.394c1.386,4.016,3.421,7.521,7.05,10.284c-2.951-0.139-5.375-0.856-7.109-3.149
	c-7.923-10.476-2.24-23.695-4.693-35.484c-1.637-7.863-6.722-13.399-13.241-17.629c1.06-0.296,1.934-0.755,2.804-0.747
	c9.987,0.092,19.978,2.008,29.737,4.21c12.877,2.905,25.181,12.306,26.377,26.518c0.241,2.861,0.252,5.762-1.003,8.468
	c-0.26,0.56-0.67,1.05-1.132,1.508c0.154-6.655,0.558-13.263-4.044-18.889c1.473,4.96-0.101,9.579-1.394,14.249
	c-0.385-5.94-1.271-11.67-5.68-16.211c1.266,5.976,1.022,11.926-0.029,17.874c0.164-6.128-1.814-11.564-4.887-16.678
	c-1.145-1.903-2.379-3.752-3.785-5.447c1.019,3.467,2.27,6.886,2.988,10.415c0.711,3.493,0.885,7.096,1.035,10.731
	c-2.788-10.135-9.129-17.585-17.141-23.815c4.396,9.025,11.236,16.893,12.394,27.393c-1.946-3.277-3.677-6.711-5.899-9.789
	c-2.236-3.097-4.962-5.84-7.74-8.513c2.938,6.05,5.875,12.101,8.813,18.15c-0.124,0.073-0.249,0.146-0.374,0.219
	c-4.731-2.805-7.423-7.346-10.057-12.449c-0.174,8.9,3.727,14.787,11.322,18.417c-1.488,0.696-5.435-0.35-8.25-2.474
	c-2.349-1.772-4.418-3.918-6.423-5.729C332.242,277.87,333.907,281.756,335.983,283.711z M345.655,314.26
	c-1.645-8.045,5.289-19.898,13.356-23.569c6.245-2.842,17.132-3.47,19.095-0.903C363.66,292.927,353.567,301.877,345.655,314.26z
	 M392.591,278.597c5.008-5.846,11.55-9.749,17.656-14.264c-5.298,0.418-9.874,2.838-14.001,5.82
	c-4.121,2.978-7.741,6.648-11.285,9.756c2.135-7.484,8.049-12.083,15.038-15.823c-2.091-0.319-9.725,2.676-13.051,5.03
	c-3.478,2.461-5.905,5.521-8.682,10.944c-0.615-1.555-0.417-3.719,0.555-5.337c6.765-11.268,18.331-14.906,30.145-18.594
	c5.194-1.622,10.516-3.792,14.452-7.675c2.584-2.55,9.957-9.254,8.652-13.303c0.109,0.337,0.331,0.738,0.357,1.151
	c0.976,15.354-1.017,32.837-15.735,41.554c-1.83,1.083-3.716,2.075-5.7,2.933c4.318-3.794,8.095-7.952,10.788-13.385
	c-6.177,4.173-10.989,9.979-18.493,11.428c7.182-5.211,13.486-11.197,17.456-19.29c0.254-0.517,0.351-1.111,0.5-1.602
	C413.744,267.84,404.138,274.545,392.591,278.597z M432.876,288.207c-0.62,5.021-1.785,9.513-3.669,13.826
	c-1.944,4.454-5.071,7.75-9.626,9.948C421.692,302.701,425.769,294.837,432.876,288.207z M408.667,308.366
	c-0.751,0.788-1.889,1.208-2.848,1.797c-0.132-1.071-0.637-2.267-0.328-3.192c1.191-3.577,2.562-7.101,4.029-10.575
	c0.704-1.665,1.774-3.174,2.851-5.052C414.178,298.052,413.163,303.648,408.667,308.366z M364.498,344.849
	c6.228,1.545,11.234-0.611,16.486-3.177c-0.521,1.163-0.753,2.64-1.615,3.432c-2.918,2.681-6.336,4.322-10.473,3.527
	C366.956,348.258,365.762,346.93,364.498,344.849z M373.309,361.458c-1.408,0.154-2.849-0.283-3.707-1.899
	c6.164-0.952,12.326-1.548,15.976-7.666c0.505,3.055-0.856,7.588-4.175,8.188C378.708,360.568,376.024,361.162,373.309,361.458z
	 M392.711,367.448c-2.355,3.436-5.874,4.563-9.75,4.546c-1.979-0.009-3.956-0.721-5.931-1.131c-0.245-0.051-0.471-0.196-0.705-0.298
	c6.266-1.73,12.9-1.748,17.176-7.973C393.992,364.59,393.665,366.056,392.711,367.448z M409.737,351.532
	c3.011-3.598,6.13-6.781,8.33-10.815c-4.126,2.196-8.01,4.264-11.893,6.331c-0.126-0.171-0.252-0.341-0.378-0.512
	c3.626-3.696,7.027-7.545,8.768-12.502c-3.554,1.855-7.115,3.715-10.678,5.575c-0.056-0.107-0.112-0.215-0.168-0.322
	c2.541-3.955,5.083-7.911,7.625-11.866c-0.096-0.076-0.191-0.152-0.287-0.229c-3.856,1.782-7.713,3.564-11.569,5.346
	c-0.068-0.12-0.137-0.241-0.205-0.361c1.266-2.223,2.531-4.444,3.797-6.667c-0.114-0.128-0.229-0.256-0.343-0.385
	c-2.821,1.265-5.595,2.719-9.018,2.512c0.453-0.583,0.843-1.026,1.17-1.514c2.084-3.101,4.184-6.191,6.207-9.331
	c0.517-0.801,0.999-1.188,1.967-0.872c2.468,0.807,5.002,1.432,7.418,2.366c7.285,2.819,14.011,6.43,18.006,13.625
	c0.245,0.442,0.579,0.836,0.858,1.233C427.647,336.302,412.832,350.305,409.737,351.532z M431.123,320.01
	c-0.733-3.822,6.089-19.287,11.496-22.096C442.162,307.201,438.229,314.343,431.123,320.01z"/>
<rect id="XMLID_2_" x="-327.453" y="-109.97" fill="none" width="1190.55" height="841.89"/>
</svg>
